<?xml version="1.0" encoding="UTF-8"?>
<!DOCTYPE svg PUBLIC "-//W3C//DTD SVG 1.1//EN" "http://www.w3.org/Graphics/SVG/1.1/DTD/svg11.dtd">
<svg xmlns="http://www.w3.org/2000/svg" version="1.1" width="474px" height="474px" style="shape-rendering:geometricPrecision; text-rendering:geometricPrecision; image-rendering:optimizeQuality; fill-rule:evenodd; clip-rule:evenodd" xmlns:xlink="http://www.w3.org/1999/xlink">
<g><path style="opacity:1" fill="#fdfdfd" d="M -0.5,-0.5 C 157.5,-0.5 315.5,-0.5 473.5,-0.5C 473.5,157.5 473.5,315.5 473.5,473.5C 315.5,473.5 157.5,473.5 -0.5,473.5C -0.5,315.5 -0.5,157.5 -0.5,-0.5 Z"/></g>
<g><path style="opacity:1" fill="#e7f9fb" d="M 431.5,152.5 C 413.835,145.974 395.835,144.974 377.5,149.5C 377.719,148.325 377.386,147.325 376.5,146.5C 374.775,145.985 373.108,145.318 371.5,144.5C 372.833,144.167 374.167,143.833 375.5,143.5C 378.317,144.237 381.15,144.904 384,145.5C 399.131,142.364 413.965,143.364 428.5,148.5C 429.934,149.588 430.934,150.922 431.5,152.5 Z"/></g>
<g><path style="opacity:1" fill="#0f6884" d="M 47.5,146.5 C 68.8333,146.5 90.1667,146.5 111.5,146.5C 111.5,146.833 111.5,147.167 111.5,147.5C 90.3399,148.497 69.0065,148.831 47.5,148.5C 47.5,148.167 47.5,147.833 47.5,147.5C 47.5,147.167 47.5,146.833 47.5,146.5 Z"/></g>
<g><path style="opacity:1" fill="#186785" d="M 270.5,146.5 C 289.674,146.17 308.674,146.503 327.5,147.5C 308.483,147.719 289.817,148.719 271.5,150.5C 271.5,151.5 271.5,152.5 271.5,153.5C 271.5,154.833 271.5,156.167 271.5,157.5C 271.672,158.492 271.338,159.158 270.5,159.5C 270.5,155.167 270.5,150.833 270.5,146.5 Z"/></g>
<g><path style="opacity:1" fill="#e8f7f7" d="M 138.5,146.5 C 137.284,151.262 135.284,155.595 132.5,159.5C 130.833,157.5 129.666,155.166 129,152.5C 128.164,154.842 126.83,156.842 125,158.5C 125.364,163.785 123.198,167.452 118.5,169.5C 120.988,161.871 123.988,154.538 127.5,147.5C 131.135,146.886 134.802,146.552 138.5,146.5 Z"/></g>
<g><path style="opacity:1" fill="#0c629d" d="M 327.5,147.5 C 339.926,149.938 349.259,156.605 355.5,167.5C 355.5,168.5 355.5,169.5 355.5,170.5C 353.331,168.66 351.998,166.326 351.5,163.5C 350.167,163.5 348.833,163.5 347.5,163.5C 347.868,160.944 347.034,158.944 345,157.5C 341.5,156.666 338.333,155.166 335.5,153C 333.866,152.506 332.199,152.34 330.5,152.5C 330.5,153.5 330.5,154.5 330.5,155.5C 334.005,154.891 336.672,156.058 338.5,159C 336.667,159.167 334.833,159.333 333,159.5C 312.554,157.633 292.054,156.966 271.5,157.5C 271.5,156.167 271.5,154.833 271.5,153.5C 287.491,154.166 303.491,154.5 319.5,154.5C 319.5,153.167 319.5,151.833 319.5,150.5C 303.5,150.5 287.5,150.5 271.5,150.5C 289.817,148.719 308.483,147.719 327.5,147.5 Z"/></g>
<g><path style="opacity:1" fill="#0b62a1" d="M 431.5,153.5 C 431.5,154.5 431.5,155.5 431.5,156.5C 435.995,156.794 437.162,158.794 435,162.5C 431.142,165.623 426.975,168.29 422.5,170.5C 420.619,168.266 418.285,166.933 415.5,166.5C 415.5,167.833 415.5,169.167 415.5,170.5C 407.856,169.52 400.189,169.353 392.5,170C 388.874,170.278 386.874,172.112 386.5,175.5C 382.998,179.536 382.664,183.87 385.5,188.5C 385.5,189.5 385.5,190.5 385.5,191.5C 388.061,191.447 390.061,192.447 391.5,194.5C 398.468,195.497 405.468,195.83 412.5,195.5C 413.5,195.5 414.5,195.5 415.5,195.5C 415.5,196.5 415.5,197.5 415.5,198.5C 422.688,197.842 427.021,200.842 428.5,207.5C 429.5,207.5 430.5,207.5 431.5,207.5C 431.833,211.5 432.167,211.5 432.5,207.5C 433.5,207.5 434.5,207.5 435.5,207.5C 436.167,207.5 436.5,207.833 436.5,208.5C 436.663,210.857 436.497,213.19 436,215.5C 434.141,216.645 433.307,218.312 433.5,220.5C 434.373,226.802 434.706,233.135 434.5,239.5C 435.5,239.5 436.5,239.5 437.5,239.5C 437.5,232.167 437.5,224.833 437.5,217.5C 438.5,217.5 439.5,217.5 440.5,217.5C 439.724,225.475 439.39,233.475 439.5,241.5C 436.312,245.877 433.645,250.543 431.5,255.5C 427.522,254.966 424.522,256.466 422.5,260C 420.167,261 417.833,262 415.5,263C 411.196,263.031 407.196,264.031 403.5,266C 396.816,266.39 390.15,266.89 383.5,267.5C 377.223,267.312 371.223,265.978 365.5,263.5C 361.598,260.768 357.931,257.601 354.5,254C 353.552,253.517 352.552,253.351 351.5,253.5C 351.5,252.5 351.5,251.5 351.5,250.5C 353.424,247.909 355.758,245.575 358.5,243.5C 362.525,242.494 366.025,240.494 369,237.5C 371.375,237.818 372.542,239.151 372.5,241.5C 384.742,243.804 397.075,244.137 409.5,242.5C 409.5,241.5 409.5,240.5 409.5,239.5C 410.5,239.5 411.5,239.5 412.5,239.5C 412.955,236.797 413.622,234.13 414.5,231.5C 413.555,222.689 408.555,218.356 399.5,218.5C 393.202,217.504 386.868,217.17 380.5,217.5C 375.939,216.424 371.605,214.757 367.5,212.5C 363.243,209.35 359.91,205.35 357.5,200.5C 355.637,204.25 353.303,207.583 350.5,210.5C 347.298,210.629 344.965,212.129 343.5,215C 341.527,215.495 339.527,215.662 337.5,215.5C 336.833,208.833 336.167,208.833 335.5,215.5C 330.351,215.651 328.018,218.318 328.5,223.5C 328.167,223.5 327.833,223.5 327.5,223.5C 317.833,223.5 308.167,223.5 298.5,223.5C 298.667,237.171 298.5,250.837 298,264.5C 296.69,265.897 295.19,266.897 293.5,267.5C 292.5,267.5 291.5,267.5 290.5,267.5C 292.116,266.011 294.116,265.011 296.5,264.5C 297.485,262.902 297.651,261.235 297,259.5C 294.902,261.049 292.568,262.049 290,262.5C 278.528,261.553 267.028,261.22 255.5,261.5C 255.5,260.5 255.5,259.5 255.5,258.5C 260.833,258.5 266.167,258.5 271.5,258.5C 271.5,257.5 271.5,256.5 271.5,255.5C 270.167,255.5 268.833,255.5 267.5,255.5C 267.167,252.833 266.833,250.167 266.5,247.5C 267.674,248.514 268.34,249.847 268.5,251.5C 268.461,252.756 268.961,253.756 270,254.5C 270.5,222.835 270.667,191.168 270.5,159.5C 271.338,159.158 271.672,158.492 271.5,157.5C 292.054,156.966 312.554,157.633 333,159.5C 334.833,159.333 336.667,159.167 338.5,159C 336.672,156.058 334.005,154.891 330.5,155.5C 330.5,154.5 330.5,153.5 330.5,152.5C 332.199,152.34 333.866,152.506 335.5,153C 338.333,155.166 341.5,156.666 345,157.5C 347.034,158.944 347.868,160.944 347.5,163.5C 348.833,163.5 350.167,163.5 351.5,163.5C 351.998,166.326 353.331,168.66 355.5,170.5C 356.583,170.461 357.583,170.127 358.5,169.5C 360.491,166.506 362.491,163.506 364.5,160.5C 365.325,159.614 366.325,159.281 367.5,159.5C 367.5,158.5 367.5,157.5 367.5,156.5C 370.14,156.046 372.473,154.879 374.5,153C 376.473,152.505 378.473,152.338 380.5,152.5C 380.222,154.346 380.889,155.68 382.5,156.5C 383.23,154.659 383.897,152.825 384.5,151C 400.435,148.355 416.101,149.189 431.5,153.5 Z"/></g>
<g><path style="opacity:1" fill="#115da6" d="M 271.5,150.5 C 287.5,150.5 303.5,150.5 319.5,150.5C 319.5,151.833 319.5,153.167 319.5,154.5C 303.491,154.5 287.491,154.166 271.5,153.5C 271.5,152.5 271.5,151.5 271.5,150.5 Z"/></g>
<g><path style="opacity:1" fill="#22608f" d="M 431.5,152.5 C 431.5,152.833 431.5,153.167 431.5,153.5C 416.101,149.189 400.435,148.355 384.5,151C 383.897,152.825 383.23,154.659 382.5,156.5C 380.889,155.68 380.222,154.346 380.5,152.5C 378.473,152.338 376.473,152.505 374.5,153C 372.473,154.879 370.14,156.046 367.5,156.5C 370.484,153.674 373.817,151.341 377.5,149.5C 395.835,144.974 413.835,145.974 431.5,152.5 Z"/></g>
<g><path style="opacity:1" fill="#1d618f" d="M 111.5,147.5 C 111.5,147.167 111.5,146.833 111.5,146.5C 117.026,146.179 122.36,146.512 127.5,147.5C 123.988,154.538 120.988,161.871 118.5,169.5C 117.167,171.5 115.833,173.5 114.5,175.5C 114.547,172.072 115.713,169.072 118,166.5C 118.497,164.19 118.663,161.857 118.5,159.5C 116.833,159.5 115.167,159.5 113.5,159.5C 113.769,161.429 113.269,163.095 112,164.5C 111.503,162.19 111.337,159.857 111.5,157.5C 114.833,157.5 118.167,157.5 121.5,157.5C 121.5,155.833 121.5,154.167 121.5,152.5C 118.603,152.875 115.937,152.375 113.5,151C 116.691,149.913 120.025,149.08 123.5,148.5C 119.555,147.509 115.555,147.176 111.5,147.5 Z"/></g>
<g><path style="opacity:1" fill="#509bbe" d="M 138.5,146.5 C 141.167,146.5 143.833,146.5 146.5,146.5C 145.808,150.89 144.808,155.224 143.5,159.5C 140.987,164.547 138.987,169.88 137.5,175.5C 136.289,178.266 134.956,180.932 133.5,183.5C 137.318,171.897 140.985,160.23 144.5,148.5C 142.533,148.261 140.699,148.594 139,149.5C 136.584,154.891 134.917,160.558 134,166.5C 132.167,169 130.333,171.5 128.5,174C 129.908,176.292 129.741,178.459 128,180.5C 127.802,178.618 127.302,176.952 126.5,175.5C 127.833,172.167 129.167,168.833 130.5,165.5C 131.73,163.703 132.396,161.703 132.5,159.5C 135.284,155.595 137.284,151.262 138.5,146.5 Z"/></g>
<g><path style="opacity:1" fill="#306483" d="M 367.5,156.5 C 367.5,157.5 367.5,158.5 367.5,159.5C 366.325,159.281 365.325,159.614 364.5,160.5C 362.491,163.506 360.491,166.506 358.5,169.5C 357.583,170.127 356.583,170.461 355.5,170.5C 355.5,169.5 355.5,168.5 355.5,167.5C 356.117,167.611 356.617,167.944 357,168.5C 359.649,163.689 363.149,159.689 367.5,156.5 Z"/></g>
<g><path style="opacity:1" fill="#e5fafb" d="M 42.5,146.5 C 42.1669,172.175 42.5002,197.842 43.5,223.5C 48.9529,233.553 57.2862,238.386 68.5,238C 73.0596,235.893 77.0596,233.06 80.5,229.5C 82.5,227.5 84.5,225.5 86.5,223.5C 85.5226,228.972 82.5226,232.805 77.5,235C 77.8333,235.333 78.1667,235.667 78.5,236C 77.1456,237.294 75.8123,237.46 74.5,236.5C 71.5311,237.668 71.1978,239.001 73.5,240.5C 78.9626,242.924 82.296,241.257 83.5,235.5C 87.1667,233.833 89.8333,231.167 91.5,227.5C 92.6888,226.571 94.0222,226.238 95.5,226.5C 92.4176,230.984 89.0843,235.317 85.5,239.5C 84.5084,239.328 83.8417,239.662 83.5,240.5C 67.9609,252.03 53.4609,250.697 40,236.5C 38.8773,233.751 37.3773,231.251 35.5,229C 34.2068,228.51 32.8734,228.343 31.5,228.5C 31.3505,227.448 31.5172,226.448 32,225.5C 33.6477,226.717 35.481,227.55 37.5,228C 39.2901,231.1 41.4568,233.933 44,236.5C 44.8699,235.892 45.3699,235.059 45.5,234C 44.6681,230.51 43.0014,227.51 40.5,225C 41.4838,203.2 41.8172,181.367 41.5,159.5C 35.236,159.386 35.236,158.386 41.5,156.5C 41.353,152.887 40.6864,149.72 39.5,147C 40.448,146.517 41.448,146.351 42.5,146.5 Z"/></g>
<g><path style="opacity:1" fill="#346993" d="M 42.5,146.5 C 44.1667,146.5 45.8333,146.5 47.5,146.5C 47.5,146.833 47.5,147.167 47.5,147.5C 45.5159,147.484 44.5159,148.484 44.5,150.5C 45.0725,174.723 45.7392,199.057 46.5,223.5C 47.2508,224.376 47.7508,225.376 48,226.5C 49.2682,226.384 50.6015,226.051 52,225.5C 51.9656,230.187 54.4656,233.354 59.5,235C 62.8333,235.667 66.1667,235.667 69.5,235C 73.3584,233.248 77.0251,231.415 80.5,229.5C 77.0596,233.06 73.0596,235.893 68.5,238C 57.2862,238.386 48.9529,233.553 43.5,223.5C 42.5002,197.842 42.1669,172.175 42.5,146.5 Z"/></g>
<g><path style="opacity:1" fill="#0a62a1" d="M 47.5,147.5 C 47.5,147.833 47.5,148.167 47.5,148.5C 69.0065,148.831 90.3399,148.497 111.5,147.5C 115.555,147.176 119.555,147.509 123.5,148.5C 120.025,149.08 116.691,149.913 113.5,151C 115.937,152.375 118.603,152.875 121.5,152.5C 121.5,154.167 121.5,155.833 121.5,157.5C 118.167,157.5 114.833,157.5 111.5,157.5C 111.337,159.857 111.503,162.19 112,164.5C 113.269,163.095 113.769,161.429 113.5,159.5C 115.167,159.5 116.833,159.5 118.5,159.5C 118.663,161.857 118.497,164.19 118,166.5C 115.713,169.072 114.547,172.072 114.5,175.5C 113.069,175.881 112.236,176.881 112,178.5C 111.751,177.376 111.251,176.376 110.5,175.5C 110.241,179.395 108.741,183.062 106,186.5C 105.091,189.513 104.258,192.513 103.5,195.5C 100.686,201.795 97.3527,207.795 93.5,213.5C 91.1667,216.833 88.8333,220.167 86.5,223.5C 84.5,225.5 82.5,227.5 80.5,229.5C 77.0251,231.415 73.3584,233.248 69.5,235C 66.1667,235.667 62.8333,235.667 59.5,235C 54.4656,233.354 51.9656,230.187 52,225.5C 50.6015,226.051 49.2682,226.384 48,226.5C 47.7508,225.376 47.2508,224.376 46.5,223.5C 45.7392,199.057 45.0725,174.723 44.5,150.5C 44.5159,148.484 45.5159,147.484 47.5,147.5 Z"/></g>
<g><path style="opacity:1" fill="#135ca7" d="M 47.5,148.5 C 68.4738,150.489 89.8072,151.156 111.5,150.5C 111.5,151.5 111.5,152.5 111.5,153.5C 90.1641,153.667 68.8307,153.5 47.5,153C 44.894,151.35 44.894,149.85 47.5,148.5 Z"/></g>
<g><path style="opacity:1" fill="#165686" d="M 157.5,146.5 C 159.833,146.5 162.167,146.5 164.5,146.5C 164.5,177.5 164.5,208.5 164.5,239.5C 163.742,209.327 163.076,178.994 162.5,148.5C 160.784,148.629 159.117,148.962 157.5,149.5C 157.5,148.5 157.5,147.5 157.5,146.5 Z"/></g>
<g><path style="opacity:1" fill="#98c3e1" d="M 164.5,146.5 C 165.167,183.833 165.833,221.167 166.5,258.5C 166.539,259.756 166.039,260.756 165,261.5C 164.501,255.509 164.334,249.509 164.5,243.5C 164.5,242.167 164.5,240.833 164.5,239.5C 164.5,208.5 164.5,177.5 164.5,146.5 Z"/></g>
<g><path style="opacity:1" fill="#ecfcfd" d="M 175.5,159.5 C 174.168,169.812 173.501,180.478 173.5,191.5C 173.833,202.167 174.167,212.833 174.5,223.5C 175.251,224.376 175.751,225.376 176,226.5C 177.314,222.988 178.314,219.321 179,215.5C 179.816,214.177 180.983,213.511 182.5,213.5C 181.099,216.704 180.099,220.037 179.5,223.5C 177.792,226.95 176.459,230.617 175.5,234.5C 172.833,240.833 170.167,247.167 167.5,253.5C 169.55,245.774 171.55,237.941 173.5,230C 173.342,227.851 172.508,226.017 171,224.5C 170.5,202.836 170.333,181.169 170.5,159.5C 169.167,159.5 167.833,159.5 166.5,159.5C 166.168,191.671 166.502,223.671 167.5,255.5C 167.443,256.609 167.11,257.609 166.5,258.5C 165.833,221.167 165.167,183.833 164.5,146.5C 162.167,146.5 159.833,146.5 157.5,146.5C 157.5,145.5 157.5,144.5 157.5,143.5C 160.713,143.726 163.713,143.893 166.5,144C 167.09,147.538 167.423,151.371 167.5,155.5C 170.441,156.613 173.108,157.946 175.5,159.5 Z"/></g>
<g><path style="opacity:1" fill="#fdfcf6" d="M 167.5,253.5 C 167.5,254.167 167.5,254.833 167.5,255.5C 166.502,223.671 166.168,191.671 166.5,159.5C 167.833,159.5 169.167,159.5 170.5,159.5C 170.333,181.169 170.5,202.836 171,224.5C 172.508,226.017 173.342,227.851 173.5,230C 171.55,237.941 169.55,245.774 167.5,253.5 Z"/></g>
<g><path style="opacity:1" fill="#fefcf3" d="M 175.5,159.5 C 174.944,171.108 175.611,182.608 177.5,194C 175.151,200.854 174.984,207.687 177,214.5C 178.378,210.612 179.378,206.612 180,202.5C 180.414,202.043 180.914,201.709 181.5,201.5C 182.489,205.107 182.823,208.774 182.5,212.5C 182.5,212.833 182.5,213.167 182.5,213.5C 180.983,213.511 179.816,214.177 179,215.5C 178.314,219.321 177.314,222.988 176,226.5C 175.751,225.376 175.251,224.376 174.5,223.5C 174.167,212.833 173.833,202.167 173.5,191.5C 173.501,180.478 174.168,169.812 175.5,159.5 Z"/></g>
<g><path style="opacity:1" fill="#0b62a0" d="M 223.5,148.5 C 225.817,147.058 227.984,147.392 230,149.5C 230.455,152.854 230.955,156.187 231.5,159.5C 232.5,159.5 233.5,159.5 234.5,159.5C 234.336,162.187 234.503,164.854 235,167.5C 238.229,175.489 241.395,183.489 244.5,191.5C 243.778,191.918 243.278,192.584 243,193.5C 242.501,198.155 242.334,202.821 242.5,207.5C 244.167,207.5 245.833,207.5 247.5,207.5C 248.256,212.187 246.756,215.853 243,218.5C 242.261,220.221 241.427,221.887 240.5,223.5C 239.18,218.881 239.513,214.381 241.5,210C 240.382,207.941 239.715,205.774 239.5,203.5C 234.049,203.177 232.382,205.511 234.5,210.5C 234.812,213.708 233.645,214.708 231,213.5C 230.505,211.527 230.338,209.527 230.5,207.5C 229.167,207.5 227.833,207.5 226.5,207.5C 226.5,209.5 226.5,211.5 226.5,213.5C 225.797,211.371 224.797,209.371 223.5,207.5C 223.099,202.563 221.766,197.896 219.5,193.5C 217.435,198.029 215.768,202.695 214.5,207.5C 212.85,212.746 211.183,218.079 209.5,223.5C 209.167,223.5 208.833,223.5 208.5,223.5C 207.596,224.209 207.263,225.209 207.5,226.5C 207.5,227.5 207.5,228.5 207.5,229.5C 215.452,228.952 223.119,230.118 230.5,233C 232.125,233.853 232.458,234.853 231.5,236C 228.854,236.497 226.187,236.664 223.5,236.5C 223.5,235.5 223.5,234.5 223.5,233.5C 202.168,234.507 202.168,236.174 223.5,238.5C 218.198,239.329 212.864,239.829 207.5,240C 218.267,241.054 228.934,241.554 239.5,241.5C 239.5,242.833 239.5,244.167 239.5,245.5C 228.82,245.333 218.154,244.833 207.5,244C 205.137,243.411 204.137,241.911 204.5,239.5C 202.167,239.5 199.833,239.5 197.5,239.5C 197.833,241.5 198.167,243.5 198.5,245.5C 200.735,245.205 202.735,245.539 204.5,246.5C 202.533,246.261 200.699,246.594 199,247.5C 197.921,250.063 197.421,252.729 197.5,255.5C 196.5,255.5 195.5,255.5 194.5,255.5C 194.817,258.572 194.484,261.572 193.5,264.5C 187.561,265.457 181.561,265.79 175.5,265.5C 172.941,265.61 170.608,264.944 168.5,263.5C 169.251,258.417 170.418,253.417 172,248.5C 173.073,252.428 174.073,256.428 175,260.5C 174.645,251.735 174.811,243.068 175.5,234.5C 176.459,230.617 177.792,226.95 179.5,223.5C 180.5,223.5 181.5,223.5 182.5,223.5C 184.198,214.552 187.031,205.885 191,197.5C 191.495,195.527 191.662,193.527 191.5,191.5C 193.529,188.457 195.362,185.124 197,181.5C 198,177.5 199,173.5 200,169.5C 203.814,164.957 205.814,159.624 206,153.5C 206.383,152.944 206.883,152.611 207.5,152.5C 209.978,153.164 212.645,153.497 215.5,153.5C 219.595,153.156 223.595,152.49 227.5,151.5C 227.5,150.5 227.5,149.5 227.5,148.5C 226.167,148.5 224.833,148.5 223.5,148.5 Z"/></g>
<g><path style="opacity:1" fill="#ebfcfd" d="M 269.5,146.5 C 269.832,181.671 269.498,216.671 268.5,251.5C 268.34,249.847 267.674,248.514 266.5,247.5C 266.5,246.833 266.5,246.167 266.5,245.5C 267.822,242.232 268.489,238.565 268.5,234.5C 268.167,230.833 267.833,227.167 267.5,223.5C 266.503,230.134 266.17,236.8 266.5,243.5C 264.054,238.76 262.054,233.76 260.5,228.5C 261.5,228.5 262.5,228.5 263.5,228.5C 264.698,224.103 266.198,219.769 268,215.5C 268.829,196.662 268.662,177.995 267.5,159.5C 267.335,155.818 267.501,152.152 268,148.5C 268.278,147.584 268.778,146.918 269.5,146.5 Z"/></g>
<g><path style="opacity:1" fill="#6f9fc3" d="M 269.5,146.5 C 269.833,146.5 270.167,146.5 270.5,146.5C 270.5,150.833 270.5,155.167 270.5,159.5C 270.667,191.168 270.5,222.835 270,254.5C 268.961,253.756 268.461,252.756 268.5,251.5C 269.498,216.671 269.832,181.671 269.5,146.5 Z"/></g>
<g><path style="opacity:1" fill="#236189" d="M 234.5,159.5 C 233.5,159.5 232.5,159.5 231.5,159.5C 230.955,156.187 230.455,152.854 230,149.5C 227.984,147.392 225.817,147.058 223.5,148.5C 218.36,149.488 213.026,149.821 207.5,149.5C 207.5,150.5 207.5,151.5 207.5,152.5C 206.883,152.611 206.383,152.944 206,153.5C 205.814,159.624 203.814,164.957 200,169.5C 199,173.5 198,177.5 197,181.5C 195.362,185.124 193.529,188.457 191.5,191.5C 191.5,190.167 191.5,188.833 191.5,187.5C 197.068,174.138 202.068,160.471 206.5,146.5C 214.528,146.169 222.528,146.502 230.5,147.5C 232.424,151.338 233.758,155.338 234.5,159.5 Z"/></g>
<g><path style="opacity:1" fill="#286089" d="M 157.5,149.5 C 158.881,156.931 157.048,163.264 152,168.5C 151.503,170.81 151.337,173.143 151.5,175.5C 150.5,175.5 149.5,175.5 148.5,175.5C 150.641,168.41 152.974,161.41 155.5,154.5C 155.796,152.597 156.463,150.93 157.5,149.5 Z"/></g>
<g><path style="opacity:1" fill="#e6f7fb" d="M 415.5,175.5 C 417.929,175.585 419.929,176.585 421.5,178.5C 427.512,172.987 433.345,167.321 439,161.5C 439.667,160.5 439.667,159.5 439,158.5C 437.482,157.837 436.315,156.837 435.5,155.5C 436.117,155.389 436.617,155.056 437,154.5C 438.5,156 440,157.5 441.5,159C 440.151,166.026 436.151,171.026 429.5,174C 426.962,177.197 424.462,180.364 422,183.5C 420.317,181.486 418.317,179.82 416,178.5C 415.517,177.552 415.351,176.552 415.5,175.5 Z"/></g>
<g><path style="opacity:1" fill="#205f8d" d="M 431.5,153.5 C 432.833,154.167 434.167,154.833 435.5,155.5C 436.315,156.837 437.482,157.837 439,158.5C 439.667,159.5 439.667,160.5 439,161.5C 433.345,167.321 427.512,172.987 421.5,178.5C 419.929,176.585 417.929,175.585 415.5,175.5C 410.978,172.125 405.811,170.792 400,171.5C 394.756,170.717 390.256,172.05 386.5,175.5C 386.874,172.112 388.874,170.278 392.5,170C 400.189,169.353 407.856,169.52 415.5,170.5C 415.5,169.167 415.5,167.833 415.5,166.5C 418.285,166.933 420.619,168.266 422.5,170.5C 426.975,168.29 431.142,165.623 435,162.5C 437.162,158.794 435.995,156.794 431.5,156.5C 431.5,155.5 431.5,154.5 431.5,153.5 Z"/></g>
<g><path style="opacity:1" fill="#fafafa" d="M 132.5,159.5 C 132.396,161.703 131.73,163.703 130.5,165.5C 128.5,166.167 126.5,166.833 124.5,167.5C 124.5,170.167 124.5,172.833 124.5,175.5C 123.5,175.5 122.5,175.5 121.5,175.5C 121.663,177.857 121.497,180.19 121,182.5C 118.788,185.193 117.288,188.193 116.5,191.5C 115.5,191.5 114.5,191.5 113.5,191.5C 113.672,187.466 114.172,183.466 115,179.5C 117.225,176.554 118.391,173.22 118.5,169.5C 123.198,167.452 125.364,163.785 125,158.5C 126.83,156.842 128.164,154.842 129,152.5C 129.666,155.166 130.833,157.5 132.5,159.5 Z"/></g>
<g><path style="opacity:1" fill="#e9f8fb" d="M 155.5,154.5 C 152.974,161.41 150.641,168.41 148.5,175.5C 146.325,180.681 144.325,186.015 142.5,191.5C 141.662,191.842 141.328,192.508 141.5,193.5C 139.692,197.588 137.692,201.588 135.5,205.5C 135.708,203.08 135.374,200.747 134.5,198.5C 136.124,197.131 136.624,195.464 136,193.5C 135.667,194.167 135.333,194.833 135,195.5C 134.691,194.234 134.191,193.067 133.5,192C 134.793,191.51 136.127,191.343 137.5,191.5C 137.281,192.675 137.614,193.675 138.5,194.5C 140.803,188.85 143.136,183.183 145.5,177.5C 145.167,176.833 144.833,176.167 144.5,175.5C 142.273,176.053 139.939,176.053 137.5,175.5C 138.987,169.88 140.987,164.547 143.5,159.5C 143.469,162.959 142.802,166.292 141.5,169.5C 144.023,172.878 146.523,172.545 149,168.5C 150.347,164.5 150.68,160.5 150,156.5C 151.444,154.845 153.278,154.178 155.5,154.5 Z"/></g>
<g><path style="opacity:1" fill="#0a62a2" d="M 164.5,239.5 C 164.5,240.833 164.5,242.167 164.5,243.5C 163.841,248.427 162.841,253.427 161.5,258.5C 161.673,260.038 162.006,261.538 162.5,263C 162.387,264.28 161.72,265.113 160.5,265.5C 159.534,263.604 159.201,261.604 159.5,259.5C 154.167,259.5 148.833,259.5 143.5,259.5C 143.5,261.167 143.5,262.833 143.5,264.5C 130.141,264.263 116.808,264.596 103.5,265.5C 103.5,264.5 103.5,263.5 103.5,262.5C 107.316,261.846 108.983,259.513 108.5,255.5C 109.5,255.5 110.5,255.5 111.5,255.5C 112.371,252.436 113.538,249.436 115,246.5C 118.023,244.302 120.856,241.969 123.5,239.5C 125.565,236.677 126.898,233.343 127.5,229.5C 127.489,227.955 127.156,226.622 126.5,225.5C 126.5,225.167 126.5,224.833 126.5,224.5C 126.5,223.833 126.833,223.5 127.5,223.5C 129.167,222.833 130.833,222.167 132.5,221.5C 134.411,213.255 137.578,205.588 142,198.5C 142.78,196.613 142.613,194.946 141.5,193.5C 141.328,192.508 141.662,191.842 142.5,191.5C 144.419,188.958 146.252,186.291 148,183.5C 148.952,180.699 149.118,178.033 148.5,175.5C 149.5,175.5 150.5,175.5 151.5,175.5C 151.337,173.143 151.503,170.81 152,168.5C 157.048,163.264 158.881,156.931 157.5,149.5C 159.117,148.962 160.784,148.629 162.5,148.5C 163.076,178.994 163.742,209.327 164.5,239.5 Z"/></g>
<g><path style="opacity:1" fill="#24618a" d="M 114.5,175.5 C 111.574,182.648 107.907,189.315 103.5,195.5C 104.258,192.513 105.091,189.513 106,186.5C 108.741,183.062 110.241,179.395 110.5,175.5C 111.251,176.376 111.751,177.376 112,178.5C 112.236,176.881 113.069,175.881 114.5,175.5 Z"/></g>
<g><path style="opacity:1" fill="#f4fbfa" d="M 260.5,223.5 C 260.5,224.833 260.5,226.167 260.5,227.5C 259.833,226.5 259.167,225.5 258.5,224.5C 258.5,224.167 258.5,223.833 258.5,223.5C 254.489,212.754 250.489,202.088 246.5,191.5C 243.119,181.069 239.452,170.736 235.5,160.5C 238.776,161.122 240.109,163.122 239.5,166.5C 241.144,166.286 242.644,166.62 244,167.5C 245.079,170.063 245.579,172.729 245.5,175.5C 246.5,175.5 247.5,175.5 248.5,175.5C 248.34,177.199 248.506,178.866 249,180.5C 250,181.833 251,181.833 252,180.5C 254.541,173.741 256.041,166.741 256.5,159.5C 257.791,176.508 257.791,193.508 256.5,210.5C 257.39,215.085 258.723,219.418 260.5,223.5 Z"/></g>
<g><path style="opacity:1" fill="#2ea1dc" d="M 133.5,183.5 C 132.624,183.369 131.957,183.702 131.5,184.5C 130.039,187.382 128.873,190.382 128,193.5C 127.933,187.945 127.1,182.612 125.5,177.5C 125.328,176.508 125.662,175.842 126.5,175.5C 127.302,176.952 127.802,178.618 128,180.5C 129.741,178.459 129.908,176.292 128.5,174C 130.333,171.5 132.167,169 134,166.5C 134.917,160.558 136.584,154.891 139,149.5C 140.699,148.594 142.533,148.261 144.5,148.5C 140.985,160.23 137.318,171.897 133.5,183.5 Z"/></g>
<g><path style="opacity:1" fill="#2a648e" d="M 234.5,159.5 C 234.833,159.5 235.167,159.5 235.5,159.5C 235.5,159.833 235.5,160.167 235.5,160.5C 239.452,170.736 243.119,181.069 246.5,191.5C 245.833,191.5 245.167,191.5 244.5,191.5C 241.395,183.489 238.229,175.489 235,167.5C 234.503,164.854 234.336,162.187 234.5,159.5 Z"/></g>
<g><path style="opacity:1" fill="#d3ebf2" d="M 415.5,175.5 C 411.906,174.543 408.24,173.876 404.5,173.5C 399.846,174.443 395.179,174.61 390.5,174C 388.93,176.862 387.263,179.695 385.5,182.5C 386.653,185.152 388.487,187.152 391,188.5C 391.483,189.448 391.649,190.448 391.5,191.5C 389.216,191.025 387.216,190.025 385.5,188.5C 382.664,183.87 382.998,179.536 386.5,175.5C 390.256,172.05 394.756,170.717 400,171.5C 405.811,170.792 410.978,172.125 415.5,175.5 Z"/></g>
<g><path style="opacity:1" fill="#e1f7fb" d="M 235.5,159.5 C 235.167,159.5 234.833,159.5 234.5,159.5C 233.758,155.338 232.424,151.338 230.5,147.5C 222.528,146.502 214.528,146.169 206.5,146.5C 202.068,160.471 197.068,174.138 191.5,187.5C 191.337,185.143 191.503,182.81 192,180.5C 197.328,170.247 200.994,159.247 203,147.5C 203.956,146.421 204.789,145.255 205.5,144C 214.09,144.274 222.756,144.608 231.5,145C 233.506,148.017 235.506,151.017 237.5,154C 237.056,155.762 236.556,155.595 236,153.5C 235.505,155.473 235.338,157.473 235.5,159.5 Z"/></g>
<g><path style="opacity:1" fill="#0f5fa7" d="M 223.5,148.5 C 224.833,148.5 226.167,148.5 227.5,148.5C 227.5,149.5 227.5,150.5 227.5,151.5C 223.595,152.49 219.595,153.156 215.5,153.5C 212.645,153.497 209.978,153.164 207.5,152.5C 207.5,151.5 207.5,150.5 207.5,149.5C 213.026,149.821 218.36,149.488 223.5,148.5 Z"/></g>
<g><path style="opacity:1" fill="#2c5e87" d="M 148.5,175.5 C 149.118,178.033 148.952,180.699 148,183.5C 146.252,186.291 144.419,188.958 142.5,191.5C 144.325,186.015 146.325,180.681 148.5,175.5 Z"/></g>
<g><path style="opacity:1" fill="#206492" d="M 319.5,198.5 C 320.167,198.5 320.5,198.167 320.5,197.5C 327.76,194.653 330.593,189.32 329,181.5C 328.303,179.416 327.136,177.749 325.5,176.5C 324.833,176.167 324.167,175.833 323.5,175.5C 322.737,174.732 321.737,174.232 320.5,174C 313.842,173.5 307.175,173.334 300.5,173.5C 299.508,180.982 299.175,188.648 299.5,196.5C 298.787,189.143 298.12,181.643 297.5,174C 297.645,173.228 297.978,172.561 298.5,172C 302.667,171.833 306.833,171.667 311,171.5C 319.183,172.141 327.349,172.808 335.5,173.5C 335.829,179.537 335.496,185.537 334.5,191.5C 333.505,186.208 333.172,180.875 333.5,175.5C 332.5,175.5 331.5,175.5 330.5,175.5C 330.83,181.868 330.496,188.202 329.5,194.5C 326.968,196.897 323.968,198.564 320.5,199.5C 319.893,199.376 319.56,199.043 319.5,198.5 Z"/></g>
<g><path style="opacity:1" fill="#fcfcfb" d="M 323.5,175.5 C 324.167,175.833 324.833,176.167 325.5,176.5C 325.666,181.511 325.499,186.511 325,191.5C 321.398,195.285 316.898,196.952 311.5,196.5C 308.833,196.333 306.167,196.167 303.5,196C 303,195.5 302.5,195 302,194.5C 301.5,187.842 301.334,181.175 301.5,174.5C 308.868,174.317 316.201,174.65 323.5,175.5 Z"/></g>
<g><path style="opacity:1" fill="#3aa2c8" d="M 125.5,177.5 C 127.1,182.612 127.933,187.945 128,193.5C 128.873,190.382 130.039,187.382 131.5,184.5C 131.957,183.702 132.624,183.369 133.5,183.5C 132.25,186.006 131.584,188.673 131.5,191.5C 130.167,193.167 128.833,194.833 127.5,196.5C 127.631,195.761 127.464,195.094 127,194.5C 125.837,196.285 125.17,198.285 125,200.5C 123.989,201.337 122.822,201.67 121.5,201.5C 121.46,198.119 121.793,194.786 122.5,191.5C 123.5,191.5 124.5,191.5 125.5,191.5C 125.949,189.023 125.283,187.023 123.5,185.5C 121.914,187.173 121.247,189.173 121.5,191.5C 120.5,191.5 119.5,191.5 118.5,191.5C 120.326,186.516 122.659,181.849 125.5,177.5 Z"/></g>
<g><path style="opacity:1" fill="#28628e" d="M 385.5,188.5 C 387.216,190.025 389.216,191.025 391.5,191.5C 398.66,192.596 405.66,193.929 412.5,195.5C 405.468,195.83 398.468,195.497 391.5,194.5C 390.061,192.447 388.061,191.447 385.5,191.5C 385.5,190.5 385.5,189.5 385.5,188.5 Z"/></g>
<g><path style="opacity:1" fill="#d9f5f9" d="M 131.5,191.5 C 131.664,194.187 131.497,196.854 131,199.5C 129.853,198.542 128.853,198.875 128,200.5C 127.189,206.804 124.356,211.804 119.5,215.5C 120.643,212.736 121.977,210.069 123.5,207.5C 125.208,204.05 126.541,200.383 127.5,196.5C 128.833,194.833 130.167,193.167 131.5,191.5 Z"/></g>
<g><path style="opacity:1" fill="#e7fbfa" d="M 300.5,173.5 C 307.175,173.334 313.842,173.5 320.5,174C 321.737,174.232 322.737,174.732 323.5,175.5C 316.201,174.65 308.868,174.317 301.5,174.5C 301.334,181.175 301.5,187.842 302,194.5C 302.5,195 303,195.5 303.5,196C 306.167,196.167 308.833,196.333 311.5,196.5C 316.898,196.952 321.398,195.285 325,191.5C 325.499,186.511 325.666,181.511 325.5,176.5C 327.136,177.749 328.303,179.416 329,181.5C 330.593,189.32 327.76,194.653 320.5,197.5C 313.833,197.5 307.167,197.5 300.5,197.5C 300.5,189.5 300.5,181.5 300.5,173.5 Z"/></g>
<g><path style="opacity:1" fill="#7cabca" d="M 300.5,173.5 C 300.5,181.5 300.5,189.5 300.5,197.5C 307.167,197.5 313.833,197.5 320.5,197.5C 320.5,198.167 320.167,198.5 319.5,198.5C 312.416,199.126 305.75,198.459 299.5,196.5C 299.175,188.648 299.508,180.982 300.5,173.5 Z"/></g>
<g><path style="opacity:1" fill="#369edf" d="M 127.5,196.5 C 126.541,200.383 125.208,204.05 123.5,207.5C 122.022,206.03 120.689,204.363 119.5,202.5C 117.783,203.668 117.116,205.335 117.5,207.5C 115.901,207.768 114.568,207.434 113.5,206.5C 115.436,201.619 117.103,196.619 118.5,191.5C 119.5,191.5 120.5,191.5 121.5,191.5C 121.247,189.173 121.914,187.173 123.5,185.5C 125.283,187.023 125.949,189.023 125.5,191.5C 124.5,191.5 123.5,191.5 122.5,191.5C 121.793,194.786 121.46,198.119 121.5,201.5C 122.822,201.67 123.989,201.337 125,200.5C 125.17,198.285 125.837,196.285 127,194.5C 127.464,195.094 127.631,195.761 127.5,196.5 Z"/></g>
<g><path style="opacity:1" fill="#dff0f7" d="M 223.5,207.5 C 222.022,207.762 220.689,207.429 219.5,206.5C 220.724,204.161 220.724,201.828 219.5,199.5C 217.985,201.547 217.151,203.881 217,206.5C 216.329,207.252 215.496,207.586 214.5,207.5C 215.768,202.695 217.435,198.029 219.5,193.5C 221.766,197.896 223.099,202.563 223.5,207.5 Z"/></g>
<g><path style="opacity:1" fill="#46a0bc" d="M 118.5,191.5 C 117.103,196.619 115.436,201.619 113.5,206.5C 112.609,207.11 111.609,207.443 110.5,207.5C 112.643,201.88 115.31,196.547 118.5,191.5 Z"/></g>
<g><path style="opacity:1" fill="#225f88" d="M 415.5,195.5 C 423.442,197.456 430.109,201.456 435.5,207.5C 434.5,207.5 433.5,207.5 432.5,207.5C 432.167,211.5 431.833,211.5 431.5,207.5C 430.5,207.5 429.5,207.5 428.5,207.5C 427.021,200.842 422.688,197.842 415.5,198.5C 415.5,197.5 415.5,196.5 415.5,195.5 Z"/></g>
<g><path style="opacity:1" fill="#f6faf8" d="M 137.5,175.5 C 139.939,176.053 142.273,176.053 144.5,175.5C 144.833,176.167 145.167,176.833 145.5,177.5C 143.136,183.183 140.803,188.85 138.5,194.5C 137.614,193.675 137.281,192.675 137.5,191.5C 136.127,191.343 134.793,191.51 133.5,192C 134.191,193.067 134.691,194.234 135,195.5C 135.333,194.833 135.667,194.167 136,193.5C 136.624,195.464 136.124,197.131 134.5,198.5C 135.374,200.747 135.708,203.08 135.5,205.5C 132.833,211.5 130.167,217.5 127.5,223.5C 126.833,223.5 126.5,223.833 126.5,224.5C 124.851,225.714 123.185,227.047 121.5,228.5C 120.777,231.07 119.61,233.403 118,235.5C 116.702,234.44 115.535,233.274 114.5,232C 115.801,226.591 117.467,221.425 119.5,216.5C 119.5,216.167 119.5,215.833 119.5,215.5C 124.356,211.804 127.189,206.804 128,200.5C 128.853,198.875 129.853,198.542 131,199.5C 131.497,196.854 131.664,194.187 131.5,191.5C 131.584,188.673 132.25,186.006 133.5,183.5C 134.956,180.932 136.289,178.266 137.5,175.5 Z"/></g>
<g><path style="opacity:1" fill="#dbf2f7" d="M 367.5,212.5 C 365.801,212.66 364.134,212.494 362.5,212C 361.626,209.171 359.959,207.004 357.5,205.5C 356.702,209.965 354.035,212.298 349.5,212.5C 349.833,211.833 350.167,211.167 350.5,210.5C 353.303,207.583 355.637,204.25 357.5,200.5C 359.91,205.35 363.243,209.35 367.5,212.5 Z"/></g>
<g><path style="opacity:1" fill="#fcfcf6" d="M 267.5,159.5 C 268.662,177.995 268.829,196.662 268,215.5C 266.198,219.769 264.698,224.103 263.5,228.5C 262.5,228.5 261.5,228.5 260.5,228.5C 260.5,228.167 260.5,227.833 260.5,227.5C 260.5,226.167 260.5,224.833 260.5,223.5C 261.982,218.017 261.482,212.684 259,207.5C 258.167,191.49 258.334,175.49 259.5,159.5C 260.333,176.157 260.833,192.823 261,209.5C 261.29,211.044 261.956,212.377 263,213.5C 264.113,203.89 264.613,194.223 264.5,184.5C 264.471,175.671 263.804,167.004 262.5,158.5C 262.808,157.692 263.308,157.025 264,156.5C 265.359,157.365 266.526,158.365 267.5,159.5 Z"/></g>
<g><path style="opacity:1" fill="#ebf8f8" d="M 130.5,165.5 C 129.167,168.833 127.833,172.167 126.5,175.5C 125.662,175.842 125.328,176.508 125.5,177.5C 122.659,181.849 120.326,186.516 118.5,191.5C 115.31,196.547 112.643,201.88 110.5,207.5C 109.504,207.414 108.671,207.748 108,208.5C 105.051,215.415 100.885,221.415 95.5,226.5C 96.1587,223.545 96.4921,220.545 96.5,217.5C 101.5,218.5 103.5,216.5 102.5,211.5C 99.5,212.167 96.5,212.833 93.5,213.5C 97.3527,207.795 100.686,201.795 103.5,195.5C 107.907,189.315 111.574,182.648 114.5,175.5C 115.833,173.5 117.167,171.5 118.5,169.5C 118.391,173.22 117.225,176.554 115,179.5C 114.172,183.466 113.672,187.466 113.5,191.5C 114.5,191.5 115.5,191.5 116.5,191.5C 117.288,188.193 118.788,185.193 121,182.5C 121.497,180.19 121.663,177.857 121.5,175.5C 122.5,175.5 123.5,175.5 124.5,175.5C 124.5,172.833 124.5,170.167 124.5,167.5C 126.5,166.833 128.5,166.167 130.5,165.5 Z"/></g>
<g><path style="opacity:1" fill="#2d6388" d="M 141.5,193.5 C 142.613,194.946 142.78,196.613 142,198.5C 137.578,205.588 134.411,213.255 132.5,221.5C 130.833,222.167 129.167,222.833 127.5,223.5C 130.167,217.5 132.833,211.5 135.5,205.5C 137.692,201.588 139.692,197.588 141.5,193.5 Z"/></g>
<g><path style="opacity:1" fill="#f2faf7" d="M 223.5,207.5 C 224.797,209.371 225.797,211.371 226.5,213.5C 226.328,214.492 226.662,215.158 227.5,215.5C 227.833,217.5 228.167,219.5 228.5,221.5C 228.5,222.5 228.5,223.5 228.5,224.5C 221.978,224.823 215.645,224.49 209.5,223.5C 211.183,218.079 212.85,212.746 214.5,207.5C 215.496,207.586 216.329,207.252 217,206.5C 217.151,203.881 217.985,201.547 219.5,199.5C 220.724,201.828 220.724,204.161 219.5,206.5C 220.689,207.429 222.022,207.762 223.5,207.5 Z"/></g>
<g><path style="opacity:1" fill="#186193" d="M 350.5,210.5 C 350.167,211.167 349.833,211.833 349.5,212.5C 345.316,217.01 340.316,220.343 334.5,222.5C 332.435,222.517 330.435,222.85 328.5,223.5C 328.018,218.318 330.351,215.651 335.5,215.5C 336.167,208.833 336.833,208.833 337.5,215.5C 339.527,215.662 341.527,215.495 343.5,215C 344.965,212.129 347.298,210.629 350.5,210.5 Z"/></g>
<g><path style="opacity:1" fill="#1f6295" d="M 246.5,191.5 C 250.489,202.088 254.489,212.754 258.5,223.5C 255.102,223.82 251.768,223.487 248.5,222.5C 249.711,221.28 249.711,220.113 248.5,219C 249.448,218.517 250.448,218.351 251.5,218.5C 251.329,213.804 250.829,209.137 250,204.5C 246.853,200.794 245.687,196.461 246.5,191.5 Z"/></g>
<g><path style="opacity:1" fill="#256290" d="M 191.5,191.5 C 191.662,193.527 191.495,195.527 191,197.5C 187.031,205.885 184.198,214.552 182.5,223.5C 181.5,223.5 180.5,223.5 179.5,223.5C 180.099,220.037 181.099,216.704 182.5,213.5C 182.5,213.167 182.5,212.833 182.5,212.5C 185.353,205.398 188.353,198.398 191.5,191.5 Z"/></g>
<g><path style="opacity:1" fill="#28608b" d="M 380.5,217.5 C 386.868,217.17 393.202,217.504 399.5,218.5C 408.555,218.356 413.555,222.689 414.5,231.5C 413.622,234.13 412.955,236.797 412.5,239.5C 411.5,239.5 410.5,239.5 409.5,239.5C 415.5,229.506 412.833,223.506 401.5,221.5C 398.411,220.215 395.078,219.549 391.5,219.5C 388.833,219.167 386.167,218.833 383.5,218.5C 382.209,218.737 381.209,218.404 380.5,217.5 Z"/></g>
<g><path style="opacity:1" fill="#96b6cd" d="M 391.5,219.5 C 395.078,219.549 398.411,220.215 401.5,221.5C 397.878,221.678 394.544,221.011 391.5,219.5 Z"/></g>
<g><path style="opacity:1" fill="#fafcfb" d="M 367.5,212.5 C 371.605,214.757 375.939,216.424 380.5,217.5C 381.209,218.404 382.209,218.737 383.5,218.5C 383.5,219.5 383.5,220.5 383.5,221.5C 389.566,222.366 395.566,222.866 401.5,223C 400.027,223.71 399.36,224.876 399.5,226.5C 402.356,226.928 405.356,227.095 408.5,227C 409.791,230.455 409.791,233.955 408.5,237.5C 405.467,235.97 402.467,235.637 399.5,236.5C 399.5,237.5 399.5,238.5 399.5,239.5C 403.449,239.693 403.449,240.193 399.5,241C 395.179,241.499 390.846,241.666 386.5,241.5C 379.459,241.149 373.126,238.815 367.5,234.5C 364.146,237.188 361.146,240.188 358.5,243.5C 355.758,245.575 353.424,247.909 351.5,250.5C 349.915,251.002 349.415,252.002 350,253.5C 353.376,256.383 356.876,259.049 360.5,261.5C 360.511,263.017 361.177,264.184 362.5,265C 366.652,267.079 370.986,268.579 375.5,269.5C 375.082,270.222 374.416,270.722 373.5,271C 376.817,271.498 380.15,271.665 383.5,271.5C 383.5,273.167 383.5,274.833 383.5,276.5C 386.028,277.011 388.528,277.678 391,278.5C 393.792,277.784 396.626,277.451 399.5,277.5C 399.5,278.833 399.5,280.167 399.5,281.5C 396.998,281.251 394.498,280.917 392,280.5C 389.239,281.418 386.406,282.084 383.5,282.5C 380.243,282.764 378.243,284.43 377.5,287.5C 375.876,287.36 374.71,288.027 374,289.5C 373.177,297.677 373.344,305.677 374.5,313.5C 374.5,313.833 374.5,314.167 374.5,314.5C 377.494,321.195 375.494,325.528 368.5,327.5C 368.167,326.833 367.833,326.167 367.5,325.5C 368.286,323.429 369.619,321.762 371.5,320.5C 370.047,318.533 369.047,316.367 368.5,314C 367.551,313.383 366.718,313.549 366,314.5C 365.506,316.134 365.34,317.801 365.5,319.5C 364.167,319.5 362.833,319.5 361.5,319.5C 361.5,318.5 361.5,317.5 361.5,316.5C 362.136,311.676 362.803,306.843 363.5,302C 362.652,300.334 361.652,298.834 360.5,297.5C 360.5,296.167 360.5,294.833 360.5,293.5C 360.657,292.127 360.49,290.793 360,289.5C 358.282,286.117 355.615,283.784 352,282.5C 347.815,284.317 343.315,285.317 338.5,285.5C 336.252,285.998 334.252,286.998 332.5,288.5C 330.925,291.652 329.925,294.986 329.5,298.5C 330.826,304.789 331.826,311.122 332.5,317.5C 331.469,319.382 330.635,321.382 330,323.5C 328.989,324.337 327.822,324.67 326.5,324.5C 326.5,325.5 326.5,326.5 326.5,327.5C 325.761,327.369 325.094,327.536 324.5,328C 325.207,330.543 326.54,332.709 328.5,334.5C 326.955,335.452 325.288,335.785 323.5,335.5C 323.714,333.856 323.38,332.356 322.5,331C 316.217,329.96 309.884,329.127 303.5,328.5C 300.008,327.839 296.842,326.506 294,324.5C 295.284,312.27 295.784,299.937 295.5,287.5C 294.5,287.5 293.5,287.5 292.5,287.5C 292.667,298.172 292.5,308.839 292,319.5C 291.411,321.863 289.911,322.863 287.5,322.5C 287.5,323.833 287.5,325.167 287.5,326.5C 283.583,327.637 279.583,328.47 275.5,329C 277.679,329.442 278.345,330.442 277.5,332C 275.527,332.495 273.527,332.662 271.5,332.5C 271.5,333.5 271.5,334.5 271.5,335.5C 268.679,335.684 267.012,334.351 266.5,331.5C 267.912,330.194 269.579,329.36 271.5,329C 268.7,327.768 265.7,327.101 262.5,327C 260.934,326.392 259.6,325.558 258.5,324.5C 261.483,324.898 264.483,325.232 267.5,325.5C 272.543,324.708 277.543,323.708 282.5,322.5C 281.908,319.873 281.575,317.206 281.5,314.5C 282.653,308.347 282.82,302.014 282,295.5C 281.062,292.743 279.562,290.41 277.5,288.5C 276.833,288.5 276.5,288.167 276.5,287.5C 276.279,286.265 275.612,285.265 274.5,284.5C 269.544,283.506 264.544,283.173 259.5,283.5C 258.167,283.5 256.833,283.5 255.5,283.5C 255.5,282.167 255.5,280.833 255.5,279.5C 262.167,279.167 262.167,278.833 255.5,278.5C 255.5,277.5 255.5,276.5 255.5,275.5C 257.527,275.662 259.527,275.495 261.5,275C 258.833,273.667 256.167,272.333 253.5,271C 249.256,271.062 245.423,270.895 242,270.5C 239.729,266.528 238.896,262.194 239.5,257.5C 239.833,257.5 240.167,257.5 240.5,257.5C 241.21,261.025 242.21,264.358 243.5,267.5C 262.326,268.497 281.326,268.83 300.5,268.5C 302.453,269.905 303.453,269.239 303.5,266.5C 302.833,264.833 302.167,263.167 301.5,261.5C 301.437,259.519 302.104,257.852 303.5,256.5C 302.223,251.847 301.557,247.013 301.5,242C 301.833,237.5 302.167,233 302.5,228.5C 312.996,226.716 323.662,225.549 334.5,225C 333.5,224.667 332.5,224.333 331.5,224C 332.737,223.768 333.737,223.268 334.5,222.5C 340.316,220.343 345.316,217.01 349.5,212.5C 354.035,212.298 356.702,209.965 357.5,205.5C 359.959,207.004 361.626,209.171 362.5,212C 364.134,212.494 365.801,212.66 367.5,212.5 Z"/></g>
<g><path style="opacity:1" fill="#0862a5" d="M 244.5,191.5 C 245.167,191.5 245.833,191.5 246.5,191.5C 245.687,196.461 246.853,200.794 250,204.5C 250.829,209.137 251.329,213.804 251.5,218.5C 250.448,218.351 249.448,218.517 248.5,219C 249.711,220.113 249.711,221.28 248.5,222.5C 251.768,223.487 255.102,223.82 258.5,223.5C 258.5,223.833 258.5,224.167 258.5,224.5C 258.99,230.842 259.657,237.175 260.5,243.5C 261.478,243.023 262.311,242.357 263,241.5C 263.876,243.758 265.043,245.758 266.5,247.5C 266.833,250.167 267.167,252.833 267.5,255.5C 268.833,255.5 270.167,255.5 271.5,255.5C 271.5,256.5 271.5,257.5 271.5,258.5C 266.167,258.5 260.833,258.5 255.5,258.5C 255.5,259.5 255.5,260.5 255.5,261.5C 267.028,261.22 278.528,261.553 290,262.5C 292.568,262.049 294.902,261.049 297,259.5C 297.651,261.235 297.485,262.902 296.5,264.5C 294.116,265.011 292.116,266.011 290.5,267.5C 289.5,267.5 288.5,267.5 287.5,267.5C 273.873,265.518 259.873,264.851 245.5,265.5C 245.798,261.399 244.132,258.733 240.5,257.5C 240.167,257.5 239.833,257.5 239.5,257.5C 239.5,256.5 239.5,255.5 239.5,254.5C 239.5,252.5 239.5,250.5 239.5,248.5C 228.162,248.667 216.828,248.5 205.5,248C 204.944,247.617 204.611,247.117 204.5,246.5C 202.735,245.539 200.735,245.205 198.5,245.5C 198.167,243.5 197.833,241.5 197.5,239.5C 199.833,239.5 202.167,239.5 204.5,239.5C 204.137,241.911 205.137,243.411 207.5,244C 218.154,244.833 228.82,245.333 239.5,245.5C 239.5,244.167 239.5,242.833 239.5,241.5C 228.934,241.554 218.267,241.054 207.5,240C 212.864,239.829 218.198,239.329 223.5,238.5C 202.168,236.174 202.168,234.507 223.5,233.5C 223.5,234.5 223.5,235.5 223.5,236.5C 226.187,236.664 228.854,236.497 231.5,236C 232.458,234.853 232.125,233.853 230.5,233C 223.119,230.118 215.452,228.952 207.5,229.5C 207.5,228.5 207.5,227.5 207.5,226.5C 215.556,227.922 223.556,227.755 231.5,226C 231.957,225.586 232.291,225.086 232.5,224.5C 231.078,222.035 230.078,219.369 229.5,216.5C 228.817,216.137 228.15,215.804 227.5,215.5C 226.662,215.158 226.328,214.492 226.5,213.5C 226.5,211.5 226.5,209.5 226.5,207.5C 227.833,207.5 229.167,207.5 230.5,207.5C 230.338,209.527 230.505,211.527 231,213.5C 233.645,214.708 234.812,213.708 234.5,210.5C 232.382,205.511 234.049,203.177 239.5,203.5C 239.715,205.774 240.382,207.941 241.5,210C 239.513,214.381 239.18,218.881 240.5,223.5C 241.427,221.887 242.261,220.221 243,218.5C 246.756,215.853 248.256,212.187 247.5,207.5C 245.833,207.5 244.167,207.5 242.5,207.5C 242.334,202.821 242.501,198.155 243,193.5C 243.278,192.584 243.778,191.918 244.5,191.5 Z"/></g>
<g><path style="opacity:1" fill="#246598" d="M 436.5,208.5 C 442.313,218.017 443.813,228.35 441,239.5C 440.722,240.416 440.222,241.082 439.5,241.5C 439.39,233.475 439.724,225.475 440.5,217.5C 439.5,217.5 438.5,217.5 437.5,217.5C 437.5,224.833 437.5,232.167 437.5,239.5C 436.5,239.5 435.5,239.5 434.5,239.5C 434.706,233.135 434.373,226.802 433.5,220.5C 433.307,218.312 434.141,216.645 436,215.5C 436.497,213.19 436.663,210.857 436.5,208.5 Z"/></g>
<g><path style="opacity:1" fill="#9bc2d6" d="M 228.5,221.5 C 229.434,222.568 229.768,223.901 229.5,225.5C 222.087,226.128 215.087,225.461 208.5,223.5C 208.833,223.5 209.167,223.5 209.5,223.5C 215.645,224.49 221.978,224.823 228.5,224.5C 228.5,223.5 228.5,222.5 228.5,221.5 Z"/></g>
<g><path style="opacity:1" fill="#f9faf2" d="M 95.5,226.5 C 94.0222,226.238 92.6888,226.571 91.5,227.5C 89.8333,231.167 87.1667,233.833 83.5,235.5C 82.296,241.257 78.9626,242.924 73.5,240.5C 71.1978,239.001 71.5311,237.668 74.5,236.5C 75.8123,237.46 77.1456,237.294 78.5,236C 78.1667,235.667 77.8333,235.333 77.5,235C 82.5226,232.805 85.5226,228.972 86.5,223.5C 88.8333,220.167 91.1667,216.833 93.5,213.5C 96.5,212.833 99.5,212.167 102.5,211.5C 103.5,216.5 101.5,218.5 96.5,217.5C 96.4921,220.545 96.1587,223.545 95.5,226.5 Z"/></g>
<g><path style="opacity:1" fill="#38a0cf" d="M 123.5,207.5 C 121.977,210.069 120.643,212.736 119.5,215.5C 119.5,215.833 119.5,216.167 119.5,216.5C 116.692,221.557 113.692,226.557 110.5,231.5C 108.381,232.791 106.715,234.625 105.5,237C 103.793,237.195 102.126,237.195 100.5,237C 100.043,237.414 99.7093,237.914 99.5,238.5C 100.729,239.281 102.062,239.781 103.5,240C 102.692,241.706 101.359,242.539 99.5,242.5C 99.7373,243.791 99.404,244.791 98.5,245.5C 98.1796,242.102 98.513,238.768 99.5,235.5C 101.115,234.846 102.782,234.346 104.5,234C 105.132,230.013 104.299,226.18 102,222.5C 100.377,225.327 99.2105,228.327 98.5,231.5C 93.5905,233.446 89.2572,236.112 85.5,239.5C 89.0843,235.317 92.4176,230.984 95.5,226.5C 100.885,221.415 105.051,215.415 108,208.5C 108.671,207.748 109.504,207.414 110.5,207.5C 111.609,207.443 112.609,207.11 113.5,206.5C 114.568,207.434 115.901,207.768 117.5,207.5C 117.116,205.335 117.783,203.668 119.5,202.5C 120.689,204.363 122.022,206.03 123.5,207.5 Z"/></g>
<g><path style="opacity:1" fill="#165c8b" d="M 227.5,215.5 C 228.15,215.804 228.817,216.137 229.5,216.5C 230.078,219.369 231.078,222.035 232.5,224.5C 232.291,225.086 231.957,225.586 231.5,226C 223.556,227.755 215.556,227.922 207.5,226.5C 207.263,225.209 207.596,224.209 208.5,223.5C 215.087,225.461 222.087,226.128 229.5,225.5C 229.768,223.901 229.434,222.568 228.5,221.5C 228.167,219.5 227.833,217.5 227.5,215.5 Z"/></g>
<g><path style="opacity:1" fill="#115dad" d="M 126.5,225.5 C 127.156,226.622 127.489,227.955 127.5,229.5C 126.898,233.343 125.565,236.677 123.5,239.5C 122.503,239.53 121.836,239.03 121.5,238C 122.611,234.945 124.111,232.112 126,229.5C 126.49,228.207 126.657,226.873 126.5,225.5 Z"/></g>
<g><path style="opacity:1" fill="#fefbe2" d="M 266.5,245.5 C 266.5,244.833 266.5,244.167 266.5,243.5C 266.17,236.8 266.503,230.134 267.5,223.5C 267.833,227.167 268.167,230.833 268.5,234.5C 268.489,238.565 267.822,242.232 266.5,245.5 Z"/></g>
<g><path style="opacity:1" fill="#e2f7fb" d="M 119.5,216.5 C 117.467,221.425 115.801,226.591 114.5,232C 115.535,233.274 116.702,234.44 118,235.5C 119.61,233.403 120.777,231.07 121.5,228.5C 123.185,227.047 124.851,225.714 126.5,224.5C 126.5,224.833 126.5,225.167 126.5,225.5C 122.26,232.926 117.76,240.259 113,247.5C 111.281,250.288 109.115,252.621 106.5,254.5C 107.572,250.244 109.739,246.578 113,243.5C 113.79,240.366 113.457,237.366 112,234.5C 109.279,238.751 106.279,242.751 103,246.5C 102.317,249.424 100.817,251.758 98.5,253.5C 97.8165,253.137 97.1499,252.804 96.5,252.5C 101.415,245.672 106.081,238.672 110.5,231.5C 113.692,226.557 116.692,221.557 119.5,216.5 Z"/></g>
<g><path style="opacity:1" fill="#eafdfb" d="M 334.5,222.5 C 333.737,223.268 332.737,223.768 331.5,224C 332.5,224.333 333.5,224.667 334.5,225C 323.662,225.549 312.996,226.716 302.5,228.5C 302.167,233 301.833,237.5 301.5,242C 301.557,247.013 302.223,251.847 303.5,256.5C 302.104,257.852 301.437,259.519 301.5,261.5C 302.167,263.167 302.833,264.833 303.5,266.5C 303.453,269.239 302.453,269.905 300.5,268.5C 300.5,254.167 300.5,239.833 300.5,225.5C 308.352,225.825 316.018,225.492 323.5,224.5C 325.099,224.768 326.432,224.434 327.5,223.5C 327.833,223.5 328.167,223.5 328.5,223.5C 330.435,222.85 332.435,222.517 334.5,222.5 Z"/></g>
<g><path style="opacity:1" fill="#e6f6fc" d="M 383.5,218.5 C 386.167,218.833 388.833,219.167 391.5,219.5C 394.544,221.011 397.878,221.678 401.5,221.5C 412.833,223.506 415.5,229.506 409.5,239.5C 401.917,242.47 394.25,243.137 386.5,241.5C 390.846,241.666 395.179,241.499 399.5,241C 403.449,240.193 403.449,239.693 399.5,239.5C 399.5,238.5 399.5,237.5 399.5,236.5C 402.467,235.637 405.467,235.97 408.5,237.5C 409.791,233.955 409.791,230.455 408.5,227C 405.356,227.095 402.356,226.928 399.5,226.5C 399.36,224.876 400.027,223.71 401.5,223C 395.566,222.866 389.566,222.366 383.5,221.5C 383.5,220.5 383.5,219.5 383.5,218.5 Z"/></g>
<g><path style="opacity:1" fill="#28618a" d="M 386.5,241.5 C 394.25,243.137 401.917,242.47 409.5,239.5C 409.5,240.5 409.5,241.5 409.5,242.5C 397.075,244.137 384.742,243.804 372.5,241.5C 372.542,239.151 371.375,237.818 369,237.5C 366.025,240.494 362.525,242.494 358.5,243.5C 361.146,240.188 364.146,237.188 367.5,234.5C 373.126,238.815 379.459,241.149 386.5,241.5 Z"/></g>
<g><path style="opacity:1" fill="#1c537b" d="M 327.5,223.5 C 326.432,224.434 325.099,224.768 323.5,224.5C 315.5,224.5 307.5,224.5 299.5,224.5C 299.5,238.833 299.5,253.167 299.5,267.5C 297.5,267.5 295.5,267.5 293.5,267.5C 295.19,266.897 296.69,265.897 298,264.5C 298.5,250.837 298.667,237.171 298.5,223.5C 308.167,223.5 317.833,223.5 327.5,223.5 Z"/></g>
<g><path style="opacity:1" fill="#81abc6" d="M 323.5,224.5 C 316.018,225.492 308.352,225.825 300.5,225.5C 300.5,239.833 300.5,254.167 300.5,268.5C 281.326,268.83 262.326,268.497 243.5,267.5C 258.167,267.5 272.833,267.5 287.5,267.5C 288.5,267.5 289.5,267.5 290.5,267.5C 291.5,267.5 292.5,267.5 293.5,267.5C 295.5,267.5 297.5,267.5 299.5,267.5C 299.5,253.167 299.5,238.833 299.5,224.5C 307.5,224.5 315.5,224.5 323.5,224.5 Z"/></g>
<g><path style="opacity:1" fill="#21608e" d="M 258.5,224.5 C 259.167,225.5 259.833,226.5 260.5,227.5C 260.5,227.833 260.5,228.167 260.5,228.5C 262.054,233.76 264.054,238.76 266.5,243.5C 266.5,244.167 266.5,244.833 266.5,245.5C 266.5,246.167 266.5,246.833 266.5,247.5C 265.043,245.758 263.876,243.758 263,241.5C 262.311,242.357 261.478,243.023 260.5,243.5C 259.657,237.175 258.99,230.842 258.5,224.5 Z"/></g>
<g><path style="opacity:1" fill="#2a5b7e" d="M 439.5,241.5 C 438.365,247.109 435.699,251.776 431.5,255.5C 433.645,250.543 436.312,245.877 439.5,241.5 Z"/></g>
<g><path style="opacity:1" fill="#469cbe" d="M 31.5,228.5 C 32.8734,228.343 34.2068,228.51 35.5,229C 37.3773,231.251 38.8773,233.751 40,236.5C 53.4609,250.697 67.9609,252.03 83.5,240.5C 84.525,240.897 84.6917,241.563 84,242.5C 81.3301,243.224 79.8301,244.891 79.5,247.5C 69.539,251.495 59.539,251.495 49.5,247.5C 48.3527,247.818 47.5194,248.484 47,249.5C 45.9827,247.624 45.1494,245.624 44.5,243.5C 43.069,243.023 41.7357,242.357 40.5,241.5C 39.9817,239.1 38.815,237.1 37,235.5C 37.4763,239.551 38.3097,243.551 39.5,247.5C 38.8333,246.833 38.1667,246.167 37.5,245.5C 34.726,240.05 32.726,234.383 31.5,228.5 Z"/></g>
<g><path style="opacity:1" fill="#31a1d9" d="M 98.5,245.5 C 94.5255,249.483 90.8588,253.816 87.5,258.5C 80.1338,264.503 71.8005,266.836 62.5,265.5C 61.6143,264.675 61.281,263.675 61.5,262.5C 58.0977,262.658 54.7644,262.324 51.5,261.5C 46.1018,258.04 42.1018,253.374 39.5,247.5C 38.3097,243.551 37.4763,239.551 37,235.5C 38.815,237.1 39.9817,239.1 40.5,241.5C 41.7357,242.357 43.069,243.023 44.5,243.5C 45.1494,245.624 45.9827,247.624 47,249.5C 47.5194,248.484 48.3527,247.818 49.5,247.5C 59.539,251.495 69.539,251.495 79.5,247.5C 79.8301,244.891 81.3301,243.224 84,242.5C 84.6917,241.563 84.525,240.897 83.5,240.5C 83.8417,239.662 84.5084,239.328 85.5,239.5C 89.2572,236.112 93.5905,233.446 98.5,231.5C 99.2105,228.327 100.377,225.327 102,222.5C 104.299,226.18 105.132,230.013 104.5,234C 102.782,234.346 101.115,234.846 99.5,235.5C 98.513,238.768 98.1796,242.102 98.5,245.5 Z"/></g>
<g><path style="opacity:1" fill="#fcfaf7" d="M 47.5,236.5 C 52.5202,236.117 56.8535,237.617 60.5,241C 64.423,241.793 68.2564,241.626 72,240.5C 72.7429,242.441 72.5762,244.274 71.5,246C 66.8333,246.667 62.1667,246.667 57.5,246C 54.7717,243.135 51.4383,241.635 47.5,241.5C 47.5,239.833 47.5,238.167 47.5,236.5 Z"/></g>
<g><path style="opacity:1" fill="#eafafd" d="M 37.5,245.5 C 38.1667,246.167 38.8333,246.833 39.5,247.5C 42.1018,253.374 46.1018,258.04 51.5,261.5C 53.5777,264.051 56.2444,265.884 59.5,267C 64.4195,268.25 69.4195,268.75 74.5,268.5C 74.2131,270.121 73.2131,271.121 71.5,271.5C 67.7121,269.744 63.7121,269.078 59.5,269.5C 56.2165,265.917 52.5498,265.583 48.5,268.5C 47.0903,266.051 47.4237,263.884 49.5,262C 46.112,263.276 43.2786,262.443 41,259.5C 40.3486,257.765 40.5153,256.098 41.5,254.5C 40.675,253.614 39.675,253.281 38.5,253.5C 38.1667,250.833 37.8333,248.167 37.5,245.5 Z"/></g>
<g><path style="opacity:1" fill="#2b6384" d="M 351.5,250.5 C 351.5,251.5 351.5,252.5 351.5,253.5C 352.552,253.351 353.552,253.517 354.5,254C 357.931,257.601 361.598,260.768 365.5,263.5C 363.716,263.107 362.05,262.441 360.5,261.5C 356.876,259.049 353.376,256.383 350,253.5C 349.415,252.002 349.915,251.002 351.5,250.5 Z"/></g>
<g><path style="opacity:1" fill="#2b638b" d="M 126.5,225.5 C 126.657,226.873 126.49,228.207 126,229.5C 124.111,232.112 122.611,234.945 121.5,238C 121.836,239.03 122.503,239.53 123.5,239.5C 120.856,241.969 118.023,244.302 115,246.5C 113.538,249.436 112.371,252.436 111.5,255.5C 110.5,255.5 109.5,255.5 108.5,255.5C 108.983,259.513 107.316,261.846 103.5,262.5C 101.534,263.255 101.2,264.421 102.5,266C 127.003,266.83 151.337,266.663 175.5,265.5C 181.561,265.79 187.561,265.457 193.5,264.5C 194.484,261.572 194.817,258.572 194.5,255.5C 195.5,255.5 196.5,255.5 197.5,255.5C 197.421,252.729 197.921,250.063 199,247.5C 200.699,246.594 202.533,246.261 204.5,246.5C 204.611,247.117 204.944,247.617 205.5,248C 216.828,248.5 228.162,248.667 239.5,248.5C 239.5,250.5 239.5,252.5 239.5,254.5C 238.566,253.432 238.232,252.099 238.5,250.5C 225.5,250.5 212.5,250.5 199.5,250.5C 198.652,254.892 197.652,259.225 196.5,263.5C 195.326,264.514 194.66,265.847 194.5,267.5C 161.816,268.159 129.483,267.493 97.5,265.5C 101.207,262.424 104.207,258.758 106.5,254.5C 109.115,252.621 111.281,250.288 113,247.5C 117.76,240.259 122.26,232.926 126.5,225.5 Z"/></g>
<g><path style="opacity:1" fill="#10619a" d="M 175.5,234.5 C 174.811,243.068 174.645,251.735 175,260.5C 174.073,256.428 173.073,252.428 172,248.5C 170.418,253.417 169.251,258.417 168.5,263.5C 170.608,264.944 172.941,265.61 175.5,265.5C 151.337,266.663 127.003,266.83 102.5,266C 101.2,264.421 101.534,263.255 103.5,262.5C 103.5,263.5 103.5,264.5 103.5,265.5C 116.808,264.596 130.141,264.263 143.5,264.5C 143.5,262.833 143.5,261.167 143.5,259.5C 148.833,259.5 154.167,259.5 159.5,259.5C 159.201,261.604 159.534,263.604 160.5,265.5C 161.72,265.113 162.387,264.28 162.5,263C 162.006,261.538 161.673,260.038 161.5,258.5C 162.841,253.427 163.841,248.427 164.5,243.5C 164.334,249.509 164.501,255.509 165,261.5C 166.039,260.756 166.539,259.756 166.5,258.5C 167.11,257.609 167.443,256.609 167.5,255.5C 167.5,254.833 167.5,254.167 167.5,253.5C 170.167,247.167 172.833,240.833 175.5,234.5 Z"/></g>
<g><path style="opacity:1" fill="#31688d" d="M 431.5,255.5 C 426.807,259.847 421.473,263.181 415.5,265.5C 411.737,265.857 408.07,266.69 404.5,268C 397.321,268.821 390.321,268.655 383.5,267.5C 390.15,266.89 396.816,266.39 403.5,266C 407.196,264.031 411.196,263.031 415.5,263C 417.833,262 420.167,261 422.5,260C 424.522,256.466 427.522,254.966 431.5,255.5 Z"/></g>
<g><path style="opacity:1" fill="#539fc4" d="M 110.5,231.5 C 106.081,238.672 101.415,245.672 96.5,252.5C 90.1565,259.325 82.8232,264.658 74.5,268.5C 69.4195,268.75 64.4195,268.25 59.5,267C 56.2444,265.884 53.5777,264.051 51.5,261.5C 54.7644,262.324 58.0977,262.658 61.5,262.5C 61.281,263.675 61.6143,264.675 62.5,265.5C 71.8005,266.836 80.1338,264.503 87.5,258.5C 90.8588,253.816 94.5255,249.483 98.5,245.5C 99.404,244.791 99.7373,243.791 99.5,242.5C 101.359,242.539 102.692,241.706 103.5,240C 102.062,239.781 100.729,239.281 99.5,238.5C 99.7093,237.914 100.043,237.414 100.5,237C 102.126,237.195 103.793,237.195 105.5,237C 106.715,234.625 108.381,232.791 110.5,231.5 Z"/></g>
<g><path style="opacity:1" fill="#175984" d="M 240.5,257.5 C 244.132,258.733 245.798,261.399 245.5,265.5C 259.873,264.851 273.873,265.518 287.5,267.5C 272.833,267.5 258.167,267.5 243.5,267.5C 242.21,264.358 241.21,261.025 240.5,257.5 Z"/></g>
<g><path style="opacity:1" fill="#5a85a0" d="M 97.5,265.5 C 129.483,267.493 161.816,268.159 194.5,267.5C 178.17,268.167 161.67,268.5 145,268.5C 128.153,268.5 111.653,267.833 95.5,266.5C 96.1667,266.167 96.8333,265.833 97.5,265.5 Z"/></g>
<g><path style="opacity:1" fill="#e4fbfe" d="M 196.5,263.5 C 196.66,265.199 196.494,266.866 196,268.5C 194.324,269.061 192.991,270.061 192,271.5C 186.401,270.175 180.901,270.175 175.5,271.5C 174.244,271.539 173.244,271.039 172.5,270C 146.5,269.667 120.5,269.333 94.5,269C 93.1175,267.539 93.4508,266.706 95.5,266.5C 111.653,267.833 128.153,268.5 145,268.5C 161.67,268.5 178.17,268.167 194.5,267.5C 194.66,265.847 195.326,264.514 196.5,263.5 Z"/></g>
<g><path style="opacity:1" fill="#e7f7fc" d="M 360.5,261.5 C 362.05,262.441 363.716,263.107 365.5,263.5C 371.223,265.978 377.223,267.312 383.5,267.5C 390.321,268.655 397.321,268.821 404.5,268C 408.07,266.69 411.737,265.857 415.5,265.5C 415.5,266.833 415.5,268.167 415.5,269.5C 402.129,269.862 388.796,269.862 375.5,269.5C 370.986,268.579 366.652,267.079 362.5,265C 361.177,264.184 360.511,263.017 360.5,261.5 Z"/></g>
<g><path style="opacity:1" fill="#f8fcfa" d="M 106.5,254.5 C 104.207,258.758 101.207,262.424 97.5,265.5C 96.8333,265.833 96.1667,266.167 95.5,266.5C 93.4508,266.706 93.1175,267.539 94.5,269C 120.5,269.333 146.5,269.667 172.5,270C 173.244,271.039 174.244,271.539 175.5,271.5C 175.5,272.833 175.5,274.167 175.5,275.5C 180.385,275.248 185.219,275.581 190,276.5C 190.5,276.833 191,277.167 191.5,277.5C 188.947,277.54 187.947,279.206 188.5,282.5C 186.319,282.284 184.653,283.117 183.5,285C 183.554,289.801 183.554,294.634 183.5,299.5C 179.521,300.505 175.521,300.505 171.5,299.5C 171.298,297.011 171.798,294.677 173,292.5C 173.308,293.308 173.808,293.975 174.5,294.5C 175.429,293.311 175.762,291.978 175.5,290.5C 174.167,290.5 172.833,290.5 171.5,290.5C 171.626,288.8 172.293,287.3 173.5,286C 171.376,282.795 168.376,281.795 164.5,283C 162.82,283.347 161.82,284.347 161.5,286C 163.113,298.869 164.113,311.703 164.5,324.5C 166.5,324.5 168.5,324.5 170.5,324.5C 170.5,318.833 170.5,313.167 170.5,307.5C 175.695,307.179 180.695,307.513 185.5,308.5C 183.248,308.916 181.748,310.249 181,312.5C 179.806,310.475 178.306,310.141 176.5,311.5C 175.476,310.147 174.143,309.48 172.5,309.5C 172.666,314.844 172.499,320.177 172,325.5C 171.5,326 171,326.5 170.5,327C 167.518,327.498 164.518,327.665 161.5,327.5C 161.739,329.467 161.406,331.301 160.5,333C 162.645,333.743 162.811,334.576 161,335.5C 157.187,332.087 152.687,330.921 147.5,332C 146.382,333.074 145.382,334.24 144.5,335.5C 144.167,334.833 143.833,334.167 143.5,333.5C 144.954,331.543 146.62,329.71 148.5,328C 147.346,327.086 147.513,326.253 149,325.5C 152.592,326.718 156.092,328.051 159.5,329.5C 160.014,327.488 160.18,325.488 160,323.5C 154.536,321.962 154.369,320.295 159.5,318.5C 154.803,315.344 151.47,316.511 149.5,322C 147.655,323.128 145.655,323.628 143.5,323.5C 143.5,324.5 143.5,325.5 143.5,326.5C 139.32,326.404 135.653,327.571 132.5,330C 127.446,330.781 122.446,330.614 117.5,329.5C 115.446,322.071 115.112,314.571 116.5,307C 116.392,305.319 115.725,304.152 114.5,303.5C 114.5,302.5 114.5,301.5 114.5,300.5C 110.985,298.404 107.152,296.738 103,295.5C 100.618,296.554 98.1178,297.221 95.5,297.5C 95.5,296.167 95.5,294.833 95.5,293.5C 94.1667,293.5 92.8333,293.5 91.5,293.5C 91.5,295.167 91.5,296.833 91.5,298.5C 95.6836,298.851 99.6836,299.518 103.5,300.5C 99.1667,300.5 94.8333,300.5 90.5,300.5C 90.5,297.5 90.5,294.5 90.5,291.5C 96.69,291.823 102.69,291.49 108.5,290.5C 108.5,288.833 108.5,287.167 108.5,285.5C 102.046,283.954 95.379,282.954 88.5,282.5C 88.33,281.178 88.6634,280.011 89.5,279C 93.0775,277.426 96.4108,275.426 99.5,273C 95.1507,273.056 90.8173,273.556 86.5,274.5C 86.5,273.5 86.5,272.5 86.5,271.5C 87.9778,271.762 89.3112,271.429 90.5,270.5C 88.0362,269.895 85.3695,268.895 82.5,267.5C 80.6586,269.512 79.6586,271.845 79.5,274.5C 81.604,274.201 83.604,274.534 85.5,275.5C 86.3256,276.451 86.4922,277.451 86,278.5C 82.0561,278.719 79.5561,280.719 78.5,284.5C 75.7692,284.144 73.1025,283.978 70.5,284C 73.1997,284.949 74.033,286.783 73,289.5C 72.3292,290.252 71.4959,290.586 70.5,290.5C 70.7845,288.585 70.4511,286.919 69.5,285.5C 59.992,284.177 50.3254,284.177 40.5,285.5C 39.233,287.371 39.233,289.204 40.5,291C 44.4908,291.642 48.4908,292.142 52.5,292.5C 52.1726,302.681 52.506,312.681 53.5,322.5C 53.5,323.167 53.5,323.833 53.5,324.5C 56.2901,328.128 59.2901,331.628 62.5,335C 59.173,336.163 57.173,334.997 56.5,331.5C 54.9411,330.926 53.4411,330.26 52,329.5C 50.2546,320.95 49.0879,312.283 48.5,303.5C 45.5045,301.331 42.1712,299.831 38.5,299C 36.8989,295.733 36.0655,292.233 36,288.5C 34.4905,287.91 32.9905,287.244 31.5,286.5C 33.7308,286.113 36.0641,285.947 38.5,286C 37.1667,283.333 37.1667,280.667 38.5,278C 36.4559,277.952 34.4559,278.452 32.5,279.5C 31.5713,278.311 31.238,276.978 31.5,275.5C 36.8797,275.324 42.213,275.658 47.5,276.5C 47.5,275.5 47.5,274.5 47.5,273.5C 52.8746,273.828 58.2079,273.495 63.5,272.5C 61.6684,271.943 60.3351,270.943 59.5,269.5C 63.7121,269.078 67.7121,269.744 71.5,271.5C 73.2131,271.121 74.2131,270.121 74.5,268.5C 82.8232,264.658 90.1565,259.325 96.5,252.5C 97.1499,252.804 97.8165,253.137 98.5,253.5C 100.817,251.758 102.317,249.424 103,246.5C 106.279,242.751 109.279,238.751 112,234.5C 113.457,237.366 113.79,240.366 113,243.5C 109.739,246.578 107.572,250.244 106.5,254.5 Z"/></g>
<g><path style="opacity:1" fill="#dffbfd" d="M 88.5,282.5 C 95.379,282.954 102.046,283.954 108.5,285.5C 100.833,285.5 93.1667,285.5 85.5,285.5C 83.5191,298.124 82.8524,311.124 83.5,324.5C 84.8333,324.5 86.1667,324.5 87.5,324.5C 89.5,324.5 91.5,324.5 93.5,324.5C 98.5,324.5 103.5,324.5 108.5,324.5C 103.689,325.056 98.8554,326.056 94,327.5C 90.1548,326.637 86.4882,326.637 83,327.5C 82.5002,317.506 82.3335,307.506 82.5,297.5C 81.5,297.5 80.5,297.5 79.5,297.5C 80.7834,294.99 81.7834,292.323 82.5,289.5C 81.5,289.5 80.5,289.5 79.5,289.5C 80.6926,285.03 83.6926,282.697 88.5,282.5 Z"/></g>
<g><path style="opacity:1" fill="#def9fb" d="M 383.5,282.5 C 386.977,283.323 390.644,283.823 394.5,284C 395.71,285.039 396.71,286.206 397.5,287.5C 390.026,284.104 383.193,285.104 377,290.5C 376.138,292.087 375.471,293.754 375,295.5C 374.501,301.491 374.334,307.491 374.5,313.5C 373.344,305.677 373.177,297.677 374,289.5C 374.71,288.027 375.876,287.36 377.5,287.5C 378.243,284.43 380.243,282.764 383.5,282.5 Z"/></g>
<g><path style="opacity:1" fill="#4b9bc2" d="M 85.5,285.5 C 93.1667,285.5 100.833,285.5 108.5,285.5C 108.5,287.167 108.5,288.833 108.5,290.5C 102.167,290.5 95.8333,290.5 89.5,290.5C 89.5,289.5 89.5,288.5 89.5,287.5C 88.1667,287.5 86.8333,287.5 85.5,287.5C 85.2304,299.204 85.5637,310.871 86.5,322.5C 88.1992,322.66 89.8659,322.494 91.5,322C 92.2524,321.329 92.5858,320.496 92.5,319.5C 92.8333,319.5 93.1667,319.5 93.5,319.5C 93.5,321.167 93.5,322.833 93.5,324.5C 91.5,324.5 89.5,324.5 87.5,324.5C 86.5313,323.691 85.6979,322.691 85,321.5C 84.1888,309.424 84.3554,297.424 85.5,285.5 Z"/></g>
<g><path style="opacity:1" fill="#64a4bf" d="M 170.5,300.5 C 169.515,296.366 169.182,292.032 169.5,287.5C 168.5,287.5 167.5,287.5 166.5,287.5C 165.505,299.322 165.172,311.322 165.5,323.5C 166.833,323.5 168.167,323.5 169.5,323.5C 169.5,320.833 169.5,318.167 169.5,315.5C 169.194,312.615 169.527,309.948 170.5,307.5C 170.5,313.167 170.5,318.833 170.5,324.5C 168.5,324.5 166.5,324.5 164.5,324.5C 164.5,311.5 164.5,298.5 164.5,285.5C 166.5,285.5 168.5,285.5 170.5,285.5C 170.5,290.5 170.5,295.5 170.5,300.5 Z"/></g>
<g><path style="opacity:1" fill="#569dac" d="M 47.5,285.5 C 47.5,287.167 47.5,288.833 47.5,290.5C 45.8333,290.5 44.1667,290.5 42.5,290.5C 42.5,288.833 42.5,287.167 42.5,285.5C 44.1667,285.5 45.8333,285.5 47.5,285.5 Z"/></g>
<g><path style="opacity:1" fill="#57a2b3" d="M 63.5,285.5 C 65.5,285.5 67.5,285.5 69.5,285.5C 70.4511,286.919 70.7845,288.585 70.5,290.5C 70.1667,290.5 69.8333,290.5 69.5,290.5C 69.5,289.5 69.5,288.5 69.5,287.5C 66.9179,287.975 64.9179,287.308 63.5,285.5 Z"/></g>
<g><path style="opacity:1" fill="#489cc7" d="M 133.5,285.5 C 142.984,284.221 148.317,288.221 149.5,297.5C 147.5,297.5 145.5,297.5 143.5,297.5C 141.238,290.538 136.905,288.871 130.5,292.5C 128.675,288.966 129.675,286.632 133.5,285.5 Z"/></g>
<g><path style="opacity:1" fill="#489fc3" d="M 397.5,287.5 C 398.793,289.296 400.293,290.963 402,292.5C 402.494,294.134 402.66,295.801 402.5,297.5C 400.5,297.5 398.5,297.5 396.5,297.5C 395.24,291.425 391.573,289.259 385.5,291C 384.069,291.465 382.903,292.299 382,293.5C 380.414,300.057 380.08,306.724 381,313.5C 381.971,315.961 383.471,317.961 385.5,319.5C 382.951,319.559 380.951,318.559 379.5,316.5C 378.833,313.833 378.167,311.167 377.5,308.5C 376.707,312.12 376.707,315.787 377.5,319.5C 376.065,318.087 375.065,316.42 374.5,314.5C 374.5,314.167 374.5,313.833 374.5,313.5C 374.334,307.491 374.501,301.491 375,295.5C 375.471,293.754 376.138,292.087 377,290.5C 383.193,285.104 390.026,284.104 397.5,287.5 Z"/></g>
<g><path style="opacity:1" fill="#ddf7fb" d="M 259.5,283.5 C 264.544,283.173 269.544,283.506 274.5,284.5C 275.612,285.265 276.279,286.265 276.5,287.5C 275.833,287.5 275.167,287.5 274.5,287.5C 268.395,284.491 262.562,285.157 257,289.5C 255.441,291.217 254.608,293.217 254.5,295.5C 254.167,295.5 253.833,295.5 253.5,295.5C 253.5,292.833 253.5,290.167 253.5,287.5C 256.522,287.658 258.522,286.325 259.5,283.5 Z"/></g>
<g><path style="opacity:1" fill="#c3edfc" d="M 297.5,285.5 C 297.5,298.5 297.5,311.5 297.5,324.5C 296.825,311.765 296.158,298.931 295.5,286C 296.094,285.536 296.761,285.369 297.5,285.5 Z"/></g>
<g><path style="opacity:1" fill="#6eadbe" d="M 191.5,285.5 C 192.833,298.5 192.833,311.5 191.5,324.5C 191.5,317.5 191.5,310.5 191.5,303.5C 191.666,298.156 191.499,292.823 191,287.5C 189.951,289.107 188.451,289.773 186.5,289.5C 186.5,288.167 186.5,286.833 186.5,285.5C 188.167,285.5 189.833,285.5 191.5,285.5 Z"/></g>
<g><path style="opacity:1" fill="#35a0dd" d="M 274.5,287.5 C 275.167,287.5 275.833,287.5 276.5,287.5C 276.5,288.167 276.833,288.5 277.5,288.5C 276.343,292.782 275.01,293.115 273.5,289.5C 273.543,288.584 273.876,287.917 274.5,287.5 Z"/></g>
<g><path style="opacity:1" fill="#6aa6b8" d="M 85.5,285.5 C 84.3554,297.424 84.1888,309.424 85,321.5C 85.6979,322.691 86.5313,323.691 87.5,324.5C 86.1667,324.5 84.8333,324.5 83.5,324.5C 82.8524,311.124 83.5191,298.124 85.5,285.5 Z"/></g>
<g><path style="opacity:1" fill="#4ba7c4" d="M 133.5,285.5 C 129.675,286.632 128.675,288.966 130.5,292.5C 129.833,293.5 129.167,294.5 128.5,295.5C 128.167,295.5 127.833,295.5 127.5,295.5C 127.5,294.5 127.5,293.5 127.5,292.5C 126.5,292.5 125.5,292.5 124.5,292.5C 124.5,296.167 124.5,299.833 124.5,303.5C 123.5,303.5 122.5,303.5 121.5,303.5C 120.564,294.002 124.564,288.002 133.5,285.5 Z"/></g>
<g><path style="opacity:1" fill="#d2f4fa" d="M 60.5,290.5 C 63.5,290.5 66.5,290.5 69.5,290.5C 69.8333,290.5 70.1667,290.5 70.5,290.5C 67.665,292.413 64.3317,293.413 60.5,293.5C 60.8276,304.014 60.4942,314.347 59.5,324.5C 59.1719,312.988 59.5052,301.654 60.5,290.5 Z"/></g>
<g><path style="opacity:1" fill="#4095cc" d="M 191.5,303.5 C 190.12,303.038 189.453,302.038 189.5,300.5C 190.156,298.547 190.489,296.547 190.5,294.5C 189.041,294.567 187.708,294.234 186.5,293.5C 186.5,292.167 186.5,290.833 186.5,289.5C 188.451,289.773 189.951,289.107 191,287.5C 191.499,292.823 191.666,298.156 191.5,303.5 Z"/></g>
<g><path style="opacity:1" fill="#4b9dc4" d="M 431.5,292.5 C 432.81,290.565 434.143,288.565 435.5,286.5C 437.5,285.167 439.5,285.167 441.5,286.5C 438.392,293.053 435.059,299.386 431.5,305.5C 431.662,303.473 431.495,301.473 431,299.5C 429.812,300.563 429.312,301.897 429.5,303.5C 428.167,303.5 426.833,303.5 425.5,303.5C 425.867,308.865 426.533,314.198 427.5,319.5C 428.327,315.541 428.827,311.541 429,307.5C 429.671,306.748 430.504,306.414 431.5,306.5C 430.545,312.409 430.211,318.409 430.5,324.5C 428.5,324.5 426.5,324.5 424.5,324.5C 424.666,318.824 424.499,313.157 424,307.5C 423.059,305.273 421.892,303.273 420.5,301.5C 420.008,299.181 419.008,297.181 417.5,295.5C 417.34,293.847 416.674,292.514 415.5,291.5C 415.123,289.742 414.456,288.075 413.5,286.5C 415.743,285.526 418.076,285.192 420.5,285.5C 422.055,291.162 424.388,296.496 427.5,301.5C 429.23,298.63 430.564,295.63 431.5,292.5 Z"/></g>
<g><path style="opacity:1" fill="#4da0c3" d="M 274.5,287.5 C 273.876,287.917 273.543,288.584 273.5,289.5C 275.01,293.115 276.343,292.782 277.5,288.5C 279.562,290.41 281.062,292.743 282,295.5C 282.82,302.014 282.653,308.347 281.5,314.5C 281.167,314.5 280.833,314.5 280.5,314.5C 280.662,312.473 280.495,310.473 280,308.5C 279.333,309.167 278.667,309.833 278,310.5C 277.195,313.696 277.362,316.696 278.5,319.5C 273.401,324.562 267.401,325.729 260.5,323C 259.269,321.595 257.936,320.429 256.5,319.5C 258.681,319.284 260.347,320.117 261.5,322C 265.5,322.667 269.5,322.667 273.5,322C 274.167,321.333 274.833,320.667 275.5,320C 274.244,319.583 273.577,318.75 273.5,317.5C 277.321,309.622 277.487,301.622 274,293.5C 270.551,289.847 266.717,289.514 262.5,292.5C 261.194,293.912 260.36,295.579 260,297.5C 259.082,303.979 259.582,310.312 261.5,316.5C 260.85,316.196 260.183,315.863 259.5,315.5C 258.669,308.189 258.169,300.856 258,293.5C 257.333,294.833 256.667,294.833 256,293.5C 255.821,297.025 255.321,300.359 254.5,303.5C 254.5,300.833 254.5,298.167 254.5,295.5C 254.608,293.217 255.441,291.217 257,289.5C 262.562,285.157 268.395,284.491 274.5,287.5 Z"/></g>
<g><path style="opacity:1" fill="#59a1c2" d="M 215.5,287.5 C 214.167,287.5 212.833,287.5 211.5,287.5C 211.338,289.527 211.505,291.527 212,293.5C 215.991,294.86 218.157,297.526 218.5,301.5C 217.833,300.833 217.167,300.167 216.5,299.5C 216.44,298.957 216.107,298.624 215.5,298.5C 214.502,307.141 214.169,315.808 214.5,324.5C 212.5,324.5 210.5,324.5 208.5,324.5C 208.5,311.5 208.5,298.5 208.5,285.5C 210.527,285.338 212.527,285.505 214.5,286C 215.056,286.383 215.389,286.883 215.5,287.5 Z"/></g>
<g><path style="opacity:1" fill="#f8fcf5" d="M 351.5,292.5 C 352.906,292.973 353.573,293.973 353.5,295.5C 353.666,300.844 353.499,306.177 353,311.5C 350.295,316.812 346.462,317.812 341.5,314.5C 340.749,313.624 340.249,312.624 340,311.5C 339.333,306.833 339.333,302.167 340,297.5C 342.532,293.093 346.365,291.426 351.5,292.5 Z"/></g>
<g><path style="opacity:1" fill="#2fa1dd" d="M 89.5,290.5 C 89.5,291.5 89.5,292.5 89.5,293.5C 88.1667,302.167 88.1667,310.833 89.5,319.5C 90.5,319.5 91.5,319.5 92.5,319.5C 92.5858,320.496 92.2524,321.329 91.5,322C 89.8659,322.494 88.1992,322.66 86.5,322.5C 85.5637,310.871 85.2304,299.204 85.5,287.5C 86.8333,287.5 88.1667,287.5 89.5,287.5C 89.5,288.5 89.5,289.5 89.5,290.5 Z"/></g>
<g><path style="opacity:1" fill="#a7d7f0" d="M 186.5,289.5 C 186.5,290.833 186.5,292.167 186.5,293.5C 186.5,296.5 186.5,299.5 186.5,302.5C 181.167,302.5 175.833,302.5 170.5,302.5C 170.5,302.167 170.5,301.833 170.5,301.5C 175.5,301.5 180.5,301.5 185.5,301.5C 185.183,297.298 185.517,293.298 186.5,289.5 Z"/></g>
<g><path style="opacity:1" fill="#479cc7" d="M 360.5,293.5 C 360.5,294.833 360.5,296.167 360.5,297.5C 360.951,304.63 360.284,311.63 358.5,318.5C 357.013,321.316 354.68,322.982 351.5,323.5C 348.992,321.763 345.992,320.93 342.5,321C 340.068,319.913 340.402,319.413 343.5,319.5C 348.732,320.469 352.232,318.469 354,313.5C 354.819,307.319 354.653,301.319 353.5,295.5C 353.573,293.973 352.906,292.973 351.5,292.5C 349.22,290.777 346.553,290.111 343.5,290.5C 340.433,290.879 339.433,289.879 340.5,287.5C 348.824,283.649 355.49,285.649 360.5,293.5 Z"/></g>
<g><path style="opacity:1" fill="#ddf9fc" d="M 420.5,301.5 C 421.892,303.273 423.059,305.273 424,307.5C 424.499,313.157 424.666,318.824 424.5,324.5C 426.5,324.5 428.5,324.5 430.5,324.5C 430.211,318.409 430.545,312.409 431.5,306.5C 431.5,306.167 431.5,305.833 431.5,305.5C 435.059,299.386 438.392,293.053 441.5,286.5C 439.5,285.167 437.5,285.167 435.5,286.5C 434.143,288.565 432.81,290.565 431.5,292.5C 432.5,289.167 433.5,285.833 434.5,282.5C 436.857,282.337 439.19,282.503 441.5,283C 443.18,283.347 444.18,284.347 444.5,286C 439.56,292.717 436.394,300.217 435,308.5C 434.167,309.5 433.333,310.5 432.5,311.5C 431.507,316.12 431.173,320.786 431.5,325.5C 429.323,325.586 427.323,326.253 425.5,327.5C 424.522,327.023 423.689,326.357 423,325.5C 422.939,317.308 422.106,309.308 420.5,301.5 Z"/></g>
<g><path style="opacity:1" fill="#f1faf9" d="M 273.5,317.5 C 269.152,320.352 265.152,320.018 261.5,316.5C 259.582,310.312 259.082,303.979 260,297.5C 260.36,295.579 261.194,293.912 262.5,292.5C 266.717,289.514 270.551,289.847 274,293.5C 277.487,301.622 277.321,309.622 273.5,317.5 Z"/></g>
<g><path style="opacity:1" fill="#4da0c5" d="M 297.5,285.5 C 299.5,285.5 301.5,285.5 303.5,285.5C 303.5,296.833 303.5,308.167 303.5,319.5C 309.5,319.5 315.5,319.5 321.5,319.5C 321.5,321.167 321.5,322.833 321.5,324.5C 313.5,324.5 305.5,324.5 297.5,324.5C 297.5,311.5 297.5,298.5 297.5,285.5 Z"/></g>
<g><path style="opacity:1" fill="#359dd5" d="M 303.5,319.5 C 303.178,322.812 301.845,322.812 299.5,319.5C 298.501,308.854 298.168,298.187 298.5,287.5C 299.5,287.5 300.5,287.5 301.5,287.5C 300.857,298.552 301.524,309.219 303.5,319.5 Z"/></g>
<g><path style="opacity:1" fill="#e0f8fc" d="M 188.5,282.5 C 189.5,282.5 190.5,282.5 191.5,282.5C 191.5,283.5 191.5,284.5 191.5,285.5C 189.833,285.5 188.167,285.5 186.5,285.5C 186.5,286.833 186.5,288.167 186.5,289.5C 185.517,293.298 185.183,297.298 185.5,301.5C 180.5,301.5 175.5,301.5 170.5,301.5C 170.5,301.167 170.5,300.833 170.5,300.5C 170.5,295.5 170.5,290.5 170.5,285.5C 168.5,285.5 166.5,285.5 164.5,285.5C 164.5,298.5 164.5,311.5 164.5,324.5C 164.113,311.703 163.113,298.869 161.5,286C 161.82,284.347 162.82,283.347 164.5,283C 168.376,281.795 171.376,282.795 173.5,286C 172.293,287.3 171.626,288.8 171.5,290.5C 172.833,290.5 174.167,290.5 175.5,290.5C 175.762,291.978 175.429,293.311 174.5,294.5C 173.808,293.975 173.308,293.308 173,292.5C 171.798,294.677 171.298,297.011 171.5,299.5C 175.521,300.505 179.521,300.505 183.5,299.5C 183.554,294.634 183.554,289.801 183.5,285C 184.653,283.117 186.319,282.284 188.5,282.5 Z"/></g>
<g><path style="opacity:1" fill="#369cd0" d="M 232.5,323.5 C 231.4,322.395 230.733,321.062 230.5,319.5C 230.685,317.804 231.519,316.471 233,315.5C 233.801,312.633 233.634,309.966 232.5,307.5C 232.5,306.167 232.5,304.833 232.5,303.5C 233.488,298.36 233.821,293.026 233.5,287.5C 234.833,287.5 236.167,287.5 237.5,287.5C 237.5,299.5 237.5,311.5 237.5,323.5C 235.833,323.5 234.167,323.5 232.5,323.5 Z"/></g>
<g><path style="opacity:1" fill="#d3f9fd" d="M 238.5,322.5 C 238.5,310.167 238.5,297.833 238.5,285.5C 236.5,285.5 234.5,285.5 232.5,285.5C 232.5,291.5 232.5,297.5 232.5,303.5C 232.5,304.833 232.5,306.167 232.5,307.5C 232.657,308.873 232.49,310.207 232,311.5C 231.283,310.956 230.783,310.289 230.5,309.5C 231.167,300.991 231.833,292.324 232.5,283.5C 234.747,282.626 237.08,282.292 239.5,282.5C 239.829,296.01 239.496,309.344 238.5,322.5 Z"/></g>
<g><path style="opacity:1" fill="#2aa1e4" d="M 377.5,293.5 C 379.308,294.918 379.975,296.918 379.5,299.5C 378.5,299.5 377.5,299.5 376.5,299.5C 376.325,297.379 376.659,295.379 377.5,293.5 Z"/></g>
<g><path style="opacity:1" fill="#eff9f9" d="M 402.5,297.5 C 402.351,298.552 402.517,299.552 403,300.5C 404.458,299.253 405.958,299.253 407.5,300.5C 410.1,297.344 412.767,294.344 415.5,291.5C 416.674,292.514 417.34,293.847 417.5,295.5C 417.752,298.32 417.252,300.986 416,303.5C 414.288,300.059 412.455,299.892 410.5,303C 411.747,304.494 411.747,305.994 410.5,307.5C 409.575,306.359 408.741,306.359 408,307.5C 407.683,305.699 407.016,305.366 406,306.5C 405.667,305.5 405.333,304.5 405,303.5C 404.827,308.584 404.161,313.584 403,318.5C 402.329,319.252 401.496,319.586 400.5,319.5C 402.264,314.361 402.931,309.028 402.5,303.5C 397.833,303.5 393.167,303.5 388.5,303.5C 388.5,305.167 388.5,306.833 388.5,308.5C 391.167,308.5 393.833,308.5 396.5,308.5C 397.048,316.414 393.381,320.08 385.5,319.5C 383.471,317.961 381.971,315.961 381,313.5C 380.08,306.724 380.414,300.057 382,293.5C 382.903,292.299 384.069,291.465 385.5,291C 391.573,289.259 395.24,291.425 396.5,297.5C 398.5,297.5 400.5,297.5 402.5,297.5 Z"/></g>
<g><path style="opacity:1" fill="#c5ecf8" d="M 89.5,290.5 C 95.8333,290.5 102.167,290.5 108.5,290.5C 102.69,291.49 96.69,291.823 90.5,291.5C 90.5,294.5 90.5,297.5 90.5,300.5C 94.8333,300.5 99.1667,300.5 103.5,300.5C 104.167,301.167 104.833,301.833 105.5,302.5C 100.167,302.5 94.8333,302.5 89.5,302.5C 89.5,299.5 89.5,296.5 89.5,293.5C 89.5,292.5 89.5,291.5 89.5,290.5 Z"/></g>
<g><path style="opacity:1" fill="#d2f4fc" d="M 69.5,285.5 C 67.5,285.5 65.5,285.5 63.5,285.5C 58.1667,285.5 52.8333,285.5 47.5,285.5C 45.8333,285.5 44.1667,285.5 42.5,285.5C 42.5,287.167 42.5,288.833 42.5,290.5C 44.1667,290.5 45.8333,290.5 47.5,290.5C 49.5,290.5 51.5,290.5 53.5,290.5C 53.5,293.833 53.5,297.167 53.5,300.5C 53.5,307.833 53.5,315.167 53.5,322.5C 52.506,312.681 52.1726,302.681 52.5,292.5C 48.4908,292.142 44.4908,291.642 40.5,291C 39.233,289.204 39.233,287.371 40.5,285.5C 50.3254,284.177 59.992,284.177 69.5,285.5 Z"/></g>
<g><path style="opacity:1" fill="#389ed2" d="M 47.5,285.5 C 52.8333,285.5 58.1667,285.5 63.5,285.5C 64.9179,287.308 66.9179,287.975 69.5,287.5C 69.5,288.5 69.5,289.5 69.5,290.5C 66.5,290.5 63.5,290.5 60.5,290.5C 60.5,289.5 60.5,288.5 60.5,287.5C 59.5,287.5 58.5,287.5 57.5,287.5C 58.6666,299.165 58.6666,310.832 57.5,322.5C 56.8333,321.5 56.1667,320.5 55.5,319.5C 54.8332,313.012 54.1666,306.679 53.5,300.5C 53.5,297.167 53.5,293.833 53.5,290.5C 51.5,290.5 49.5,290.5 47.5,290.5C 47.5,288.833 47.5,287.167 47.5,285.5 Z"/></g>
<g><path style="opacity:1" fill="#3f9dcc" d="M 127.5,295.5 C 127.334,301.842 127.5,308.175 128,314.5C 128.278,315.416 128.778,316.082 129.5,316.5C 132.192,319.142 135.525,320.142 139.5,319.5C 140.873,319.343 142.207,319.51 143.5,320C 138.412,322.792 133.078,323.292 127.5,321.5C 126.206,320.71 125.039,319.71 124,318.5C 121.967,313.705 121.134,308.705 121.5,303.5C 122.5,303.5 123.5,303.5 124.5,303.5C 124.5,299.833 124.5,296.167 124.5,292.5C 125.5,292.5 126.5,292.5 127.5,292.5C 127.5,293.5 127.5,294.5 127.5,295.5 Z"/></g>
<g><path style="opacity:1" fill="#3898c4" d="M 166.5,287.5 C 166.5,296.833 166.5,306.167 166.5,315.5C 167.5,315.5 168.5,315.5 169.5,315.5C 169.5,318.167 169.5,320.833 169.5,323.5C 168.167,323.5 166.833,323.5 165.5,323.5C 165.172,311.322 165.505,299.322 166.5,287.5 Z"/></g>
<g><path style="opacity:1" fill="#309fda" d="M 166.5,287.5 C 167.5,287.5 168.5,287.5 169.5,287.5C 169.182,292.032 169.515,296.366 170.5,300.5C 170.5,300.833 170.5,301.167 170.5,301.5C 170.5,301.833 170.5,302.167 170.5,302.5C 173.625,303.479 176.958,303.813 180.5,303.5C 180.5,304.5 180.5,305.5 180.5,306.5C 176.958,306.187 173.625,306.521 170.5,307.5C 169.527,309.948 169.194,312.615 169.5,315.5C 168.5,315.5 167.5,315.5 166.5,315.5C 166.5,306.167 166.5,296.833 166.5,287.5 Z"/></g>
<g><path style="opacity:1" fill="#4a9bc2" d="M 89.5,293.5 C 89.5,296.5 89.5,299.5 89.5,302.5C 94.8333,302.5 100.167,302.5 105.5,302.5C 105.5,304.167 105.5,305.833 105.5,307.5C 100.167,307.5 94.8333,307.5 89.5,307.5C 89.5,311.5 89.5,315.5 89.5,319.5C 88.1667,310.833 88.1667,302.167 89.5,293.5 Z"/></g>
<g><path style="opacity:1" fill="#6ba6ba" d="M 238.5,322.5 C 238.03,323.693 237.03,324.36 235.5,324.5C 234.274,324.48 233.274,324.147 232.5,323.5C 234.167,323.5 235.833,323.5 237.5,323.5C 237.5,311.5 237.5,299.5 237.5,287.5C 236.167,287.5 234.833,287.5 233.5,287.5C 233.821,293.026 233.488,298.36 232.5,303.5C 232.5,297.5 232.5,291.5 232.5,285.5C 234.5,285.5 236.5,285.5 238.5,285.5C 238.5,297.833 238.5,310.167 238.5,322.5 Z"/></g>
<g><path style="opacity:1" fill="#8cc6de" d="M 253.5,295.5 C 253.833,295.5 254.167,295.5 254.5,295.5C 254.5,298.167 254.5,300.833 254.5,303.5C 254.283,308.23 254.617,312.897 255.5,317.5C 254.883,317.389 254.383,317.056 254,316.5C 253.5,309.508 253.334,302.508 253.5,295.5 Z"/></g>
<g><path style="opacity:1" fill="#4ca2c0" d="M 221.5,296.5 C 224.734,300.622 227.734,304.955 230.5,309.5C 230.783,310.289 231.283,310.956 232,311.5C 232.49,310.207 232.657,308.873 232.5,307.5C 233.634,309.966 233.801,312.633 233,315.5C 231.519,316.471 230.685,317.804 230.5,319.5C 229.512,318.205 228.512,316.872 227.5,315.5C 228.693,315.03 229.36,314.03 229.5,312.5C 229.821,309.488 228.488,308.155 225.5,308.5C 223.805,304.736 222.472,300.736 221.5,296.5 Z"/></g>
<g><path style="opacity:1" fill="#ddf9fd" d="M 360.5,297.5 C 361.652,298.834 362.652,300.334 363.5,302C 362.803,306.843 362.136,311.676 361.5,316.5C 360.237,321.764 356.904,324.43 351.5,324.5C 351.5,324.167 351.5,323.833 351.5,323.5C 354.68,322.982 357.013,321.316 358.5,318.5C 360.284,311.63 360.951,304.63 360.5,297.5 Z"/></g>
<g><path style="opacity:1" fill="#2e9fd9" d="M 431.5,305.5 C 431.5,305.833 431.5,306.167 431.5,306.5C 430.504,306.414 429.671,306.748 429,307.5C 428.827,311.541 428.327,315.541 427.5,319.5C 426.533,314.198 425.867,308.865 425.5,303.5C 426.833,303.5 428.167,303.5 429.5,303.5C 429.312,301.897 429.812,300.563 431,299.5C 431.495,301.473 431.662,303.473 431.5,305.5 Z"/></g>
<g><path style="opacity:1" fill="#fbfcef" d="M 114.5,303.5 C 113.833,308.681 113.167,314.015 112.5,319.5C 111.833,316.167 111.167,312.833 110.5,309.5C 108.088,311.099 105.588,312.432 103,313.5C 100.979,313.327 99.1459,312.66 97.5,311.5C 97.7093,310.914 98.0426,310.414 98.5,310C 101.482,309.502 104.482,309.335 107.5,309.5C 107.351,308.448 107.517,307.448 108,306.5C 108.333,306.833 108.667,307.167 109,307.5C 109.304,305.559 110.137,303.893 111.5,302.5C 108.988,301.205 106.321,300.539 103.5,300.5C 99.6836,299.518 95.6836,298.851 91.5,298.5C 91.5,296.833 91.5,295.167 91.5,293.5C 92.8333,293.5 94.1667,293.5 95.5,293.5C 95.5,294.833 95.5,296.167 95.5,297.5C 98.1178,297.221 100.618,296.554 103,295.5C 107.152,296.738 110.985,298.404 114.5,300.5C 114.5,301.5 114.5,302.5 114.5,303.5 Z"/></g>
<g><path style="opacity:1" fill="#95ced8" d="M 127.5,295.5 C 127.833,295.5 128.167,295.5 128.5,295.5C 128.28,302.543 128.614,309.543 129.5,316.5C 128.778,316.082 128.278,315.416 128,314.5C 127.5,308.175 127.334,301.842 127.5,295.5 Z"/></g>
<g><path style="opacity:1" fill="#389ed3" d="M 215.5,287.5 C 217.735,290.291 219.735,293.291 221.5,296.5C 222.472,300.736 223.805,304.736 225.5,308.5C 228.488,308.155 229.821,309.488 229.5,312.5C 229.36,314.03 228.693,315.03 227.5,315.5C 224.474,310.816 221.474,306.149 218.5,301.5C 218.157,297.526 215.991,294.86 212,293.5C 211.505,291.527 211.338,289.527 211.5,287.5C 212.833,287.5 214.167,287.5 215.5,287.5 Z"/></g>
<g><path style="opacity:1" fill="#2e9fd9" d="M 210.5,297.5 C 211.496,297.414 212.329,297.748 213,298.5C 213.167,301.5 213.333,304.5 213.5,307.5C 213.717,311.701 213.05,315.701 211.5,319.5C 210.503,312.197 210.169,304.863 210.5,297.5 Z"/></g>
<g><path style="opacity:1" fill="#c1e8ef" d="M 105.5,307.5 C 100.695,308.487 95.6946,308.821 90.5,308.5C 90.5,311.833 90.5,315.167 90.5,318.5C 96.69,318.177 102.69,318.51 108.5,319.5C 106.833,319.5 105.167,319.5 103.5,319.5C 100.833,319.5 98.1667,319.5 95.5,319.5C 94.8333,319.5 94.1667,319.5 93.5,319.5C 93.1667,319.5 92.8333,319.5 92.5,319.5C 91.5,319.5 90.5,319.5 89.5,319.5C 89.5,315.5 89.5,311.5 89.5,307.5C 94.8333,307.5 100.167,307.5 105.5,307.5 Z"/></g>
<g><path style="opacity:1" fill="#359bdd" d="M 280.5,314.5 C 280.88,316.698 280.213,318.365 278.5,319.5C 277.362,316.696 277.195,313.696 278,310.5C 278.667,309.833 279.333,309.167 280,308.5C 280.495,310.473 280.662,312.473 280.5,314.5 Z"/></g>
<g><path style="opacity:1" fill="#9bcfde" d="M 216.5,299.5 C 215.833,307.833 215.167,316.167 214.5,324.5C 214.169,315.808 214.502,307.141 215.5,298.5C 216.107,298.624 216.44,298.957 216.5,299.5 Z"/></g>
<g><path style="opacity:1" fill="#d2f6fb" d="M 343.5,290.5 C 346.553,290.111 349.22,290.777 351.5,292.5C 346.365,291.426 342.532,293.093 340,297.5C 339.333,302.167 339.333,306.833 340,311.5C 340.249,312.624 340.749,313.624 341.5,314.5C 346.462,317.812 350.295,316.812 353,311.5C 353.499,306.177 353.666,300.844 353.5,295.5C 354.653,301.319 354.819,307.319 354,313.5C 352.232,318.469 348.732,320.469 343.5,319.5C 342.312,318.636 341.145,317.636 340,316.5C 338.485,309.233 338.152,301.899 339,294.5C 340.397,292.93 341.897,291.596 343.5,290.5 Z"/></g>
<g><path style="opacity:1" fill="#48a1ca" d="M 186.5,293.5 C 187.708,294.234 189.041,294.567 190.5,294.5C 190.489,296.547 190.156,298.547 189.5,300.5C 189.453,302.038 190.12,303.038 191.5,303.5C 191.5,310.5 191.5,317.5 191.5,324.5C 189.5,324.5 187.5,324.5 185.5,324.5C 185.5,319.167 185.5,313.833 185.5,308.5C 180.695,307.513 175.695,307.179 170.5,307.5C 173.625,306.521 176.958,306.187 180.5,306.5C 180.5,305.5 180.5,304.5 180.5,303.5C 176.958,303.813 173.625,303.479 170.5,302.5C 175.833,302.5 181.167,302.5 186.5,302.5C 186.5,299.5 186.5,296.5 186.5,293.5 Z"/></g>
<g><path style="opacity:1" fill="#3b9ed2" d="M 385.5,319.5 C 393.381,320.08 397.048,316.414 396.5,308.5C 397.5,308.5 398.5,308.5 399.5,308.5C 400.546,314.07 398.879,318.403 394.5,321.5C 390.514,321.621 386.514,321.954 382.5,322.5C 381.305,320.703 379.638,319.703 377.5,319.5C 376.707,315.787 376.707,312.12 377.5,308.5C 378.167,311.167 378.833,313.833 379.5,316.5C 380.951,318.559 382.951,319.559 385.5,319.5 Z"/></g>
<g><path style="opacity:1" fill="#489ec1" d="M 340.5,287.5 C 339.433,289.879 340.433,290.879 343.5,290.5C 341.897,291.596 340.397,292.93 339,294.5C 338.152,301.899 338.485,309.233 340,316.5C 341.145,317.636 342.312,318.636 343.5,319.5C 340.402,319.413 340.068,319.913 342.5,321C 345.992,320.93 348.992,321.763 351.5,323.5C 351.5,323.833 351.5,324.167 351.5,324.5C 343.955,326.136 338.122,323.803 334,317.5C 332.463,309.23 332.13,300.897 333,292.5C 334.886,289.758 337.386,288.091 340.5,287.5 Z"/></g>
<g><path style="opacity:1" fill="#4f9ab8" d="M 143.5,323.5 C 137.723,325.326 132.39,324.659 127.5,321.5C 133.078,323.292 138.412,322.792 143.5,320C 142.207,319.51 140.873,319.343 139.5,319.5C 141.254,317.411 142.587,315.078 143.5,312.5C 145.5,312.5 147.5,312.5 149.5,312.5C 149.313,314.564 148.813,316.564 148,318.5C 146.293,320.037 144.793,321.704 143.5,323.5 Z"/></g>
<g><path style="opacity:1" fill="#3c9dcd" d="M 261.5,316.5 C 265.152,320.018 269.152,320.352 273.5,317.5C 273.577,318.75 274.244,319.583 275.5,320C 274.833,320.667 274.167,321.333 273.5,322C 269.5,322.667 265.5,322.667 261.5,322C 260.347,320.117 258.681,319.284 256.5,319.5C 256.167,318.833 255.833,318.167 255.5,317.5C 254.617,312.897 254.283,308.23 254.5,303.5C 255.321,300.359 255.821,297.025 256,293.5C 256.667,294.833 257.333,294.833 258,293.5C 258.169,300.856 258.669,308.189 259.5,315.5C 260.183,315.863 260.85,316.196 261.5,316.5 Z"/></g>
<g><path style="opacity:1" fill="#579fbc" d="M 60.5,290.5 C 59.5052,301.654 59.1719,312.988 59.5,324.5C 57.5,324.5 55.5,324.5 53.5,324.5C 53.5,323.833 53.5,323.167 53.5,322.5C 53.5,315.167 53.5,307.833 53.5,300.5C 54.1666,306.679 54.8332,313.012 55.5,319.5C 56.1667,320.5 56.8333,321.5 57.5,322.5C 58.6666,310.832 58.6666,299.165 57.5,287.5C 58.5,287.5 59.5,287.5 60.5,287.5C 60.5,288.5 60.5,289.5 60.5,290.5 Z"/></g>
<g><path style="opacity:1" fill="#42a3ba" d="M 93.5,319.5 C 94.1667,319.5 94.8333,319.5 95.5,319.5C 96.5739,321.216 98.2406,322.216 100.5,322.5C 101.855,321.812 102.855,320.812 103.5,319.5C 105.167,319.5 106.833,319.5 108.5,319.5C 108.5,321.167 108.5,322.833 108.5,324.5C 103.5,324.5 98.5,324.5 93.5,324.5C 93.5,322.833 93.5,321.167 93.5,319.5 Z"/></g>
<g><path style="opacity:1" fill="#3e98ce" d="M 95.5,319.5 C 98.1667,319.5 100.833,319.5 103.5,319.5C 102.855,320.812 101.855,321.812 100.5,322.5C 98.2406,322.216 96.5739,321.216 95.5,319.5 Z"/></g>
<g><path style="opacity:1" fill="#4b9ebd" d="M 400.5,319.5 C 394.631,324.66 387.965,325.826 380.5,323C 379.29,321.961 378.29,320.794 377.5,319.5C 379.638,319.703 381.305,320.703 382.5,322.5C 386.514,321.954 390.514,321.621 394.5,321.5C 398.879,318.403 400.546,314.07 399.5,308.5C 398.5,308.5 397.5,308.5 396.5,308.5C 393.833,308.5 391.167,308.5 388.5,308.5C 388.5,306.833 388.5,305.167 388.5,303.5C 393.167,303.5 397.833,303.5 402.5,303.5C 402.931,309.028 402.264,314.361 400.5,319.5 Z"/></g>
<g><path style="opacity:1" fill="#d5f1f8" d="M 253.5,295.5 C 253.334,302.508 253.5,309.508 254,316.5C 254.383,317.056 254.883,317.389 255.5,317.5C 255.833,318.167 256.167,318.833 256.5,319.5C 257.936,320.429 259.269,321.595 260.5,323C 267.401,325.729 273.401,324.562 278.5,319.5C 280.213,318.365 280.88,316.698 280.5,314.5C 280.833,314.5 281.167,314.5 281.5,314.5C 281.575,317.206 281.908,319.873 282.5,322.5C 277.543,323.708 272.543,324.708 267.5,325.5C 264.483,325.232 261.483,324.898 258.5,324.5C 256.273,323.599 255.273,321.933 255.5,319.5C 254.5,319.5 253.5,319.5 252.5,319.5C 252.174,311.316 252.508,303.316 253.5,295.5 Z"/></g>
<g><path style="opacity:1" fill="#c6edf9" d="M 321.5,319.5 C 322.461,321.265 322.795,323.265 322.5,325.5C 313.983,325.826 305.65,325.493 297.5,324.5C 305.5,324.5 313.5,324.5 321.5,324.5C 321.5,322.833 321.5,321.167 321.5,319.5 Z"/></g>
<g><path style="opacity:1" fill="#e9fbfc" d="M 360.5,293.5 C 355.49,285.649 348.824,283.649 340.5,287.5C 337.386,288.091 334.886,289.758 333,292.5C 332.13,300.897 332.463,309.23 334,317.5C 338.122,323.803 343.955,326.136 351.5,324.5C 351.5,325.5 351.5,326.5 351.5,327.5C 349.473,327.338 347.473,327.505 345.5,328C 343.057,331.387 339.724,332.887 335.5,332.5C 335.5,331.167 335.5,329.833 335.5,328.5C 337.604,328.799 339.604,328.466 341.5,327.5C 339.187,324.668 336.187,323.501 332.5,324C 331.949,327.272 331.116,330.439 330,333.5C 328.053,331.937 326.886,329.937 326.5,327.5C 326.5,326.5 326.5,325.5 326.5,324.5C 327.822,324.67 328.989,324.337 330,323.5C 330.635,321.382 331.469,319.382 332.5,317.5C 331.826,311.122 330.826,304.789 329.5,298.5C 329.925,294.986 330.925,291.652 332.5,288.5C 334.252,286.998 336.252,285.998 338.5,285.5C 343.315,285.317 347.815,284.317 352,282.5C 355.615,283.784 358.282,286.117 360,289.5C 360.49,290.793 360.657,292.127 360.5,293.5 Z"/></g>
</svg>
