<?xml version="1.0" encoding="UTF-8"?>
<!DOCTYPE svg PUBLIC "-//W3C//DTD SVG 1.1//EN" "http://www.w3.org/Graphics/SVG/1.1/DTD/svg11.dtd">
<svg xmlns="http://www.w3.org/2000/svg" version="1.1" width="24px" height="24px" style="shape-rendering:geometricPrecision; text-rendering:geometricPrecision; image-rendering:optimizeQuality; fill-rule:evenodd; clip-rule:evenodd" xmlns:xlink="http://www.w3.org/1999/xlink">
<g><path style="opacity:0.798" fill="#fefffe" d="M 20.5,23.5 C 19.1667,23.5 17.8333,23.5 16.5,23.5C 15.3064,22.2227 13.6397,21.5561 11.5,21.5C 9.3603,21.5561 7.69363,22.2227 6.5,23.5C 5.16667,23.5 3.83333,23.5 2.5,23.5C 2.73994,20.4212 2.40661,17.4212 1.5,14.5C 3.10974,12.5052 4.44307,10.3386 5.5,8C 9.5,7.33333 13.5,7.33333 17.5,8C 18.5418,9.91796 19.7085,11.7513 21,13.5C 20.6835,16.7462 20.5168,20.0795 20.5,23.5 Z M 7.5,9.5 C 10.1873,9.33591 12.854,9.50258 15.5,10C 16.1667,11 16.8333,12 17.5,13C 13.5,13.6667 9.5,13.6667 5.5,13C 6.30501,11.8873 6.97168,10.7206 7.5,9.5 Z"/></g>
</svg>
