<?xml version="1.0" encoding="UTF-8"?>
<!DOCTYPE svg PUBLIC "-//W3C//DTD SVG 1.1//EN" "http://www.w3.org/Graphics/SVG/1.1/DTD/svg11.dtd">
<svg xmlns="http://www.w3.org/2000/svg" version="1.1" width="176px" height="176px" style="shape-rendering:geometricPrecision; text-rendering:geometricPrecision; image-rendering:optimizeQuality; fill-rule:evenodd; clip-rule:evenodd" xmlns:xlink="http://www.w3.org/1999/xlink">
<g><path style="opacity:1" fill="#fefefe" d="M -0.5,-0.5 C 58.1667,-0.5 116.833,-0.5 175.5,-0.5C 175.5,58.1667 175.5,116.833 175.5,175.5C 116.833,175.5 58.1667,175.5 -0.5,175.5C -0.5,116.833 -0.5,58.1667 -0.5,-0.5 Z"/></g>
<g><path style="opacity:1" fill="#6d6c6a" d="M 87.5,142.5 C 87.0825,141.778 86.4158,141.278 85.5,141C 91.0352,134.564 93.7019,127.064 93.5,118.5C 95.099,118.768 96.4324,118.434 97.5,117.5C 115.316,115.159 126.149,105.159 130,87.5C 130.398,58.2325 115.898,44.0659 86.5,45C 70.3359,49.6589 60.6693,60.1589 57.5,76.5C 56.5489,77.9187 56.2155,79.5853 56.5,81.5C 48.0497,81.4743 40.5497,84.141 34,89.5C 33.79,87.9419 33.29,86.6085 32.5,85.5C 32.6781,56.2821 46.0114,35.7821 72.5,24C 99.2652,15.8984 122.099,22.065 141,42.5C 159.229,69.0646 158.896,95.3979 140,121.5C 125.822,136.619 108.322,143.619 87.5,142.5 Z"/></g>
<g><path style="opacity:1" fill="#fdfdfd" d="M 97.5,117.5 C 96.1667,117.5 94.8333,117.5 93.5,117.5C 93.5,105.5 93.5,93.5 93.5,81.5C 81.5,81.5 69.5,81.5 57.5,81.5C 57.5,79.8333 57.5,78.1667 57.5,76.5C 60.6693,60.1589 70.3359,49.6589 86.5,45C 115.898,44.0659 130.398,58.2325 130,87.5C 126.149,105.159 115.316,115.159 97.5,117.5 Z"/></g>
<g><path style="opacity:1" fill="#aeaead" d="M 57.5,76.5 C 57.5,78.1667 57.5,79.8333 57.5,81.5C 59.2237,103.89 71.2237,115.89 93.5,117.5C 94.8333,117.5 96.1667,117.5 97.5,117.5C 96.4324,118.434 95.099,118.768 93.5,118.5C 93.7019,127.064 91.0352,134.564 85.5,141C 86.4158,141.278 87.0825,141.778 87.5,142.5C 86.5,142.5 85.5,142.5 84.5,142.5C 56.2024,136.202 38.8691,118.869 32.5,90.5C 32.5,88.8333 32.5,87.1667 32.5,85.5C 33.29,86.6085 33.79,87.9419 34,89.5C 40.5497,84.141 48.0497,81.4743 56.5,81.5C 56.2155,79.5853 56.5489,77.9187 57.5,76.5 Z"/></g>
<g><path style="opacity:1" fill="#fecb18" d="M 57.5,81.5 C 69.5,81.5 81.5,81.5 93.5,81.5C 93.5,93.5 93.5,105.5 93.5,117.5C 71.2237,115.89 59.2237,103.89 57.5,81.5 Z"/></g>
<g><path style="opacity:1" fill="#fecc1a" d="M 32.5,90.5 C 38.8691,118.869 56.2024,136.202 84.5,142.5C 69.5785,156.252 53.2452,158.086 35.5,148C 21.6328,136.309 17.4662,121.809 23,104.5C 25.4345,99.2851 28.6012,94.6185 32.5,90.5 Z"/></g>
</svg>
