<?xml version="1.0" encoding="UTF-8"?>
<!DOCTYPE svg PUBLIC "-//W3C//DTD SVG 1.1//EN" "http://www.w3.org/Graphics/SVG/1.1/DTD/svg11.dtd">
<svg xmlns="http://www.w3.org/2000/svg" version="1.1" width="512px" height="512px" style="shape-rendering:geometricPrecision; text-rendering:geometricPrecision; image-rendering:optimizeQuality; fill-rule:evenodd; clip-rule:evenodd" xmlns:xlink="http://www.w3.org/1999/xlink">
<g><path style="opacity:0.971" fill="#000000" d="M 441.5,148.5 C 458.047,146.763 467.381,154.096 469.5,170.5C 469.044,174.702 467.877,178.702 466,182.5C 371.833,276.667 277.667,370.833 183.5,465C 170.77,472.276 159.937,470.109 151,458.5C 147.2,449.773 147.866,441.44 153,433.5C 246.5,340 340,246.5 433.5,153C 436.099,151.205 438.766,149.705 441.5,148.5 Z"/></g>
<g><path style="opacity:0.955" fill="#000000" d="M 443.5,297.5 C 463.268,298.04 471.435,308.04 468,327.5C 466.729,330.433 465.062,333.099 463,335.5C 420.167,378.333 377.333,421.167 334.5,464C 324.5,471.333 314.5,471.333 304.5,464C 295.842,453.897 295.342,443.397 303,432.5C 346.167,389.333 389.333,346.167 432.5,303C 435.99,300.588 439.657,298.755 443.5,297.5 Z"/></g>
</svg>
