<?xml version="1.0" encoding="UTF-8"?>
<!DOCTYPE svg PUBLIC "-//W3C//DTD SVG 1.1//EN" "http://www.w3.org/Graphics/SVG/1.1/DTD/svg11.dtd">
<svg xmlns="http://www.w3.org/2000/svg" version="1.1" width="438px" height="437px" style="shape-rendering:geometricPrecision; text-rendering:geometricPrecision; image-rendering:optimizeQuality; fill-rule:evenodd; clip-rule:evenodd" xmlns:xlink="http://www.w3.org/1999/xlink">
<g><path style="opacity:1" fill="#fdfdfd" d="M -0.5,-0.5 C 69.1667,-0.5 138.833,-0.5 208.5,-0.5C 208.5,104.5 208.5,209.5 208.5,314.5C 205.461,315.01 202.461,315.677 199.5,316.5C 199.5,211.5 199.5,106.5 199.5,1.5C 196.833,1.5 194.167,1.5 191.5,1.5C 188.833,1.83333 186.167,2.16667 183.5,2.5C 183.5,109.833 183.5,217.167 183.5,324.5C 180.833,326.5 178.167,328.5 175.5,330.5C 173.834,225.671 172.834,120.671 172.5,15.5C 172.5,12.1667 172.5,8.83333 172.5,5.5C 170.585,5.21552 168.919,5.54885 167.5,6.5C 164.505,6.29379 161.838,6.96046 159.5,8.5C 158.5,8.5 157.5,8.5 156.5,8.5C 156.172,134.528 156.505,260.528 157.5,386.5C 157.41,389.152 158.076,391.485 159.5,393.5C 168.322,418.655 185.989,432.655 212.5,435.5C 212.5,435.833 212.5,436.167 212.5,436.5C 141.5,436.5 70.5,436.5 -0.5,436.5C -0.5,290.833 -0.5,145.167 -0.5,-0.5 Z"/></g>
<g><path style="opacity:1" fill="#fefcfc" d="M 225.5,0.5 C 225.5,0.166667 225.5,-0.166667 225.5,-0.5C 296.167,-0.5 366.833,-0.5 437.5,-0.5C 437.5,145.167 437.5,290.833 437.5,436.5C 369.167,436.5 300.833,436.5 232.5,436.5C 233.551,435.778 234.218,434.778 234.5,433.5C 258.752,425.409 273.252,408.743 278,383.5C 278.833,258.499 278.667,133.499 277.5,8.5C 275.591,7.65178 273.591,7.31845 271.5,7.5C 270.486,6.32627 269.153,5.6596 267.5,5.5C 266.081,4.54885 264.415,4.21552 262.5,4.5C 262.833,114.001 262.499,223.335 261.5,332.5C 258.474,329.805 255.474,327.138 252.5,324.5C 252.5,217.167 252.5,109.833 252.5,2.5C 251.5,2.5 250.5,2.5 249.5,2.5C 247.152,1.04832 244.486,0.38165 241.5,0.5C 239.631,0.506808 237.964,0.840141 236.5,1.5C 233.162,2.19348 232.662,3.86014 235,6.5C 235.167,58 235.333,109.5 235.5,161C 235.5,212.838 234.833,264.338 233.5,315.5C 232.167,315.5 230.833,315.5 229.5,315.5C 228.828,314.733 227.995,314.066 227,313.5C 226.833,208.999 226.333,104.666 225.5,0.5 Z"/></g>
<g><path style="opacity:1" fill="#f7c1be" d="M 236.5,1.5 C 237.964,0.840141 239.631,0.506808 241.5,0.5C 244.486,0.38165 247.152,1.04832 249.5,2.5C 248.5,2.5 247.5,2.5 246.5,2.5C 246.167,2.5 245.833,2.5 245.5,2.5C 242.713,1.52333 239.713,1.19 236.5,1.5 Z"/></g>
<g><path style="opacity:1" fill="#fff1f0" d="M 208.5,-0.5 C 209.167,-0.5 209.833,-0.5 210.5,-0.5C 210.5,-0.166667 210.5,0.166667 210.5,0.5C 209.501,104.999 209.167,209.665 209.5,314.5C 209.167,314.5 208.833,314.5 208.5,314.5C 208.5,209.5 208.5,104.5 208.5,-0.5 Z"/></g>
<g><path style="opacity:1" fill="#d75046" d="M 210.5,0.5 C 215.363,0.180544 220.03,0.513877 224.5,1.5C 220.167,1.5 215.833,1.5 211.5,1.5C 212.165,106.172 211.498,210.505 209.5,314.5C 209.167,209.665 209.501,104.999 210.5,0.5 Z"/></g>
<g><path style="opacity:1" fill="#be3934" d="M 210.5,0.5 C 210.5,0.166667 210.5,-0.166667 210.5,-0.5C 215.5,-0.5 220.5,-0.5 225.5,-0.5C 225.5,-0.166667 225.5,0.166667 225.5,0.5C 225.5,104.833 225.5,209.167 225.5,313.5C 224.501,209.668 224.167,105.668 224.5,1.5C 220.03,0.513877 215.363,0.180544 210.5,0.5 Z"/></g>
<g><path style="opacity:1" fill="#f7b4b3" d="M 267.5,5.5 C 266.167,5.5 264.833,5.5 263.5,5.5C 263.5,114.833 263.5,224.167 263.5,333.5C 262.508,333.672 261.842,333.338 261.5,332.5C 262.499,223.335 262.833,114.001 262.5,4.5C 264.415,4.21552 266.081,4.54885 267.5,5.5 Z"/></g>
<g><path style="opacity:1" fill="#c5322b" d="M 267.5,5.5 C 269.153,5.6596 270.486,6.32627 271.5,7.5C 269.139,7.32588 266.806,6.99255 264.5,6.5C 264.833,115.668 264.499,224.668 263.5,333.5C 263.5,224.167 263.5,114.833 263.5,5.5C 264.833,5.5 266.167,5.5 267.5,5.5 Z"/></g>
<g><path style="opacity:1" fill="#ca463a" d="M 159.5,8.5 C 158.502,134.43 158.169,260.43 158.5,386.5C 158.167,386.5 157.833,386.5 157.5,386.5C 156.505,260.528 156.172,134.528 156.5,8.5C 157.5,8.5 158.5,8.5 159.5,8.5 Z"/></g>
<g><path style="opacity:1" fill="#bf5048" d="M 167.5,6.5 C 168.919,5.54885 170.585,5.21552 172.5,5.5C 172.5,8.83333 172.5,12.1667 172.5,15.5C 172.5,121.167 172.5,226.833 172.5,332.5C 171.501,224.001 171.167,115.335 171.5,6.5C 170.167,6.5 168.833,6.5 167.5,6.5 Z"/></g>
<g><path style="opacity:1" fill="#c2352e" d="M 191.5,1.5 C 191.5,1.83333 191.5,2.16667 191.5,2.5C 188.933,2.72148 186.599,3.38815 184.5,4.5C 184.5,111.167 184.5,217.833 184.5,324.5C 184.167,324.5 183.833,324.5 183.5,324.5C 183.5,217.167 183.5,109.833 183.5,2.5C 186.167,2.16667 188.833,1.83333 191.5,1.5 Z"/></g>
<g><path style="opacity:1" fill="#e22117" d="M 184.5,4.5 C 186.166,109.163 187.166,214.163 187.5,319.5C 188.167,218.001 188.833,116.667 189.5,15.5C 189.667,117.501 189.5,219.501 189,321.5C 188.586,321.043 188.086,320.709 187.5,320.5C 186.833,322.167 186.167,323.833 185.5,325.5C 184.893,325.376 184.56,325.043 184.5,324.5C 184.5,217.833 184.5,111.167 184.5,4.5 Z"/></g>
<g><path style="opacity:1" fill="#d6261f" d="M 191.5,2.5 C 193.5,2.5 195.5,2.5 197.5,2.5C 197.5,3.5 197.5,4.5 197.5,5.5C 189.667,5.96217 189.667,6.96217 197.5,8.5C 197.5,106.833 197.5,205.167 197.5,303.5C 196.806,306.421 195.973,309.421 195,312.5C 194.661,309.964 194.161,307.464 193.5,305C 194.83,208.526 194.83,112.026 193.5,15.5C 192.825,112.678 192.159,209.844 191.5,307C 191.354,309.034 192.02,310.701 193.5,312C 193,312.5 192.5,313 192,313.5C 191.667,316.167 191.333,318.833 191,321.5C 190.833,219.333 190.333,117.333 189.5,15.5C 188.833,116.667 188.167,218.001 187.5,319.5C 187.166,214.163 186.166,109.163 184.5,4.5C 186.599,3.38815 188.933,2.72148 191.5,2.5 Z"/></g>
<g><path style="opacity:1" fill="#dc5342" d="M 191.5,2.5 C 191.5,2.16667 191.5,1.83333 191.5,1.5C 194.167,1.5 196.833,1.5 199.5,1.5C 199.5,106.5 199.5,211.5 199.5,316.5C 197.57,312.627 196.903,308.294 197.5,303.5C 197.5,205.167 197.5,106.833 197.5,8.5C 189.667,6.96217 189.667,5.96217 197.5,5.5C 197.5,4.5 197.5,3.5 197.5,2.5C 195.5,2.5 193.5,2.5 191.5,2.5 Z"/></g>
<g><path style="opacity:1" fill="#fee0e2" d="M 225.5,0.5 C 226.333,104.666 226.833,208.999 227,313.5C 227.995,314.066 228.828,314.733 229.5,315.5C 228.5,315.5 227.5,315.5 226.5,315.5C 225.662,315.158 225.328,314.492 225.5,313.5C 225.5,209.167 225.5,104.833 225.5,0.5 Z"/></g>
<g><path style="opacity:1" fill="#ffebed" d="M 236.5,1.5 C 236.5,106.5 236.5,211.5 236.5,316.5C 235.209,316.737 234.209,316.404 233.5,315.5C 234.833,264.338 235.5,212.838 235.5,161C 235.333,109.5 235.167,58 235,6.5C 232.662,3.86014 233.162,2.19348 236.5,1.5 Z"/></g>
<g><path style="opacity:1" fill="#c7382d" d="M 236.5,1.5 C 239.713,1.19 242.713,1.52333 245.5,2.5C 243.208,2.24358 241.041,2.57692 239,3.5C 238.5,105.499 238.333,207.499 238.5,309.5C 238.777,312.448 238.444,315.281 237.5,318C 233.752,317.377 230.086,316.544 226.5,315.5C 227.5,315.5 228.5,315.5 229.5,315.5C 230.833,315.5 232.167,315.5 233.5,315.5C 234.209,316.404 235.209,316.737 236.5,316.5C 236.5,211.5 236.5,106.5 236.5,1.5 Z"/></g>
<g><path style="opacity:1" fill="#df2217" d="M 245.5,2.5 C 245.833,2.5 246.167,2.5 246.5,2.5C 247.568,3.43448 248.901,3.76781 250.5,3.5C 250.167,110.668 250.501,217.668 251.5,324.5C 250.965,327.238 251.965,329.072 254.5,330C 252.149,329.86 249.816,329.36 247.5,328.5C 247.104,325.518 247.771,322.851 249.5,320.5C 249.376,319.893 249.043,319.56 248.5,319.5C 249.164,217.828 248.498,116.495 246.5,15.5C 245.681,12.6946 245.181,9.69464 245,6.5C 244.586,6.04265 244.086,5.70931 243.5,5.5C 242.852,7.14916 241.852,8.48249 240.5,9.5C 239.833,109.666 239.167,209.666 238.5,309.5C 238.333,207.499 238.5,105.499 239,3.5C 241.041,2.57692 243.208,2.24358 245.5,2.5 Z"/></g>
<g><path style="opacity:1" fill="#d0493c" d="M 246.5,2.5 C 247.5,2.5 248.5,2.5 249.5,2.5C 250.5,2.5 251.5,2.5 252.5,2.5C 252.5,109.833 252.5,217.167 252.5,324.5C 252.167,324.5 251.833,324.5 251.5,324.5C 250.501,217.668 250.167,110.668 250.5,3.5C 248.901,3.76781 247.568,3.43448 246.5,2.5 Z"/></g>
<g><path style="opacity:1" fill="#de2318" d="M 271.5,7.5 C 272.6,8.55847 273.934,9.3918 275.5,10C 272.547,10.8925 269.881,10.3925 267.5,8.5C 266.534,10.396 266.201,12.396 266.5,14.5C 267.833,14.5 269.167,14.5 270.5,14.5C 270.168,116.404 270.501,218.237 271.5,320C 270.915,321.302 270.249,322.469 269.5,323.5C 268.833,220.999 268.167,118.333 267.5,15.5C 266.168,117.068 266.168,218.568 267.5,320C 266.81,325.165 266.143,330.331 265.5,335.5C 264.167,335.5 263.5,334.833 263.5,333.5C 264.499,224.668 264.833,115.668 264.5,6.5C 266.806,6.99255 269.139,7.32588 271.5,7.5 Z"/></g>
<g><path style="opacity:1" fill="#d9251c" d="M 224.5,1.5 C 224.167,105.668 224.501,209.668 225.5,313.5C 225.328,314.492 225.662,315.158 226.5,315.5C 230.086,316.544 233.752,317.377 237.5,318C 238.444,315.281 238.777,312.448 238.5,309.5C 239.167,209.666 239.833,109.666 240.5,9.5C 241.852,8.48249 242.852,7.14916 243.5,5.5C 244.086,5.70931 244.586,6.04265 245,6.5C 245.181,9.69464 245.681,12.6946 246.5,15.5C 245.836,117.172 246.502,218.505 248.5,319.5C 249.043,319.56 249.376,319.893 249.5,320.5C 247.771,322.851 247.104,325.518 247.5,328.5C 249.816,329.36 252.149,329.86 254.5,330C 251.965,329.072 250.965,327.238 251.5,324.5C 251.833,324.5 252.167,324.5 252.5,324.5C 255.474,327.138 258.474,329.805 261.5,332.5C 261.842,333.338 262.508,333.672 263.5,333.5C 263.5,334.833 264.167,335.5 265.5,335.5C 266.5,335.5 267.5,335.5 268.5,335.5C 269.237,331.464 269.571,327.464 269.5,323.5C 270.249,322.469 270.915,321.302 271.5,320C 270.501,218.237 270.168,116.404 270.5,14.5C 269.167,14.5 267.833,14.5 266.5,14.5C 266.201,12.396 266.534,10.396 267.5,8.5C 269.881,10.3925 272.547,10.8925 275.5,10C 273.934,9.3918 272.6,8.55847 271.5,7.5C 273.591,7.31845 275.591,7.65178 277.5,8.5C 278.667,133.499 278.833,258.499 278,383.5C 273.252,408.743 258.752,425.409 234.5,433.5C 227.27,435.112 219.937,435.779 212.5,435.5C 185.989,432.655 168.322,418.655 159.5,393.5C 159.326,391.139 158.993,388.806 158.5,386.5C 158.169,260.43 158.502,134.43 159.5,8.5C 161.838,6.96046 164.505,6.29379 167.5,6.5C 168.833,6.5 170.167,6.5 171.5,6.5C 171.167,115.335 171.501,224.001 172.5,332.5C 173.758,333.016 174.758,332.35 175.5,330.5C 178.167,328.5 180.833,326.5 183.5,324.5C 183.833,324.5 184.167,324.5 184.5,324.5C 184.56,325.043 184.893,325.376 185.5,325.5C 186.167,323.833 186.833,322.167 187.5,320.5C 188.086,320.709 188.586,321.043 189,321.5C 189.5,219.501 189.667,117.501 189.5,15.5C 190.333,117.333 190.833,219.333 191,321.5C 191.333,318.833 191.667,316.167 192,313.5C 192.5,313 193,312.5 193.5,312C 192.02,310.701 191.354,309.034 191.5,307C 192.159,209.844 192.825,112.678 193.5,15.5C 194.83,112.026 194.83,208.526 193.5,305C 194.161,307.464 194.661,309.964 195,312.5C 195.973,309.421 196.806,306.421 197.5,303.5C 196.903,308.294 197.57,312.627 199.5,316.5C 202.461,315.677 205.461,315.01 208.5,314.5C 208.833,314.5 209.167,314.5 209.5,314.5C 211.498,210.505 212.165,106.172 211.5,1.5C 215.833,1.5 220.167,1.5 224.5,1.5 Z"/></g>
<g><path style="opacity:1" fill="#d2291e" d="M 269.5,323.5 C 269.571,327.464 269.237,331.464 268.5,335.5C 267.5,335.5 266.5,335.5 265.5,335.5C 266.143,330.331 266.81,325.165 267.5,320C 266.168,218.568 266.168,117.068 267.5,15.5C 268.167,118.333 268.833,220.999 269.5,323.5 Z"/></g>
<g><path style="opacity:1" fill="#d62521" d="M 246.5,15.5 C 248.498,116.495 249.164,217.828 248.5,319.5C 246.502,218.505 245.836,117.172 246.5,15.5 Z"/></g>
<g><path style="opacity:1" fill="#ffebe4" d="M 172.5,15.5 C 172.834,120.671 173.834,225.671 175.5,330.5C 174.758,332.35 173.758,333.016 172.5,332.5C 172.5,226.833 172.5,121.167 172.5,15.5 Z"/></g>
<g><path style="opacity:1" fill="#29166f" d="M 305.5,18.5 C 375.712,50.5021 418.546,104.502 434,180.5C 434.498,183.482 434.665,186.482 434.5,189.5C 436.163,212.599 435.496,235.599 432.5,258.5C 419.413,324.196 384.08,374.029 326.5,408C 321.475,411.174 316.142,413.674 310.5,415.5C 307.873,416.092 305.206,416.425 302.5,416.5C 302.5,416.167 302.5,415.833 302.5,415.5C 302.333,283.833 302.5,152.166 303,20.5C 303.417,19.244 304.25,18.5774 305.5,18.5 Z"/></g>
<g><path style="opacity:1" fill="#29166e" d="M 135.5,419.5 C 82.2023,397.372 43.369,360.039 19,307.5C 11.2935,289.881 6.12687,271.547 3.5,252.5C 2.58366,231.518 2.25033,210.518 2.5,189.5C 12.2831,122.06 45.6165,69.8933 102.5,33C 109.063,29.2196 115.729,25.7196 122.5,22.5C 126.379,23.4155 129.712,22.2488 132.5,19C 134.134,18.5065 135.801,18.3398 137.5,18.5C 138.165,152.504 137.498,286.171 135.5,419.5 Z"/></g>
<g><path style="opacity:1" fill="#291769" d="M 298.5,15.5 C 301.157,15.9348 303.491,16.9348 305.5,18.5C 304.25,18.5774 303.417,19.244 303,20.5C 302.5,152.166 302.333,283.833 302.5,415.5C 301.167,283.5 299.833,151.5 298.5,19.5C 298.5,18.1667 298.5,16.8333 298.5,15.5 Z"/></g>
<g><path style="opacity:1" fill="#2b1e66" d="M 138.5,15.5 C 138.833,150.668 138.5,285.668 137.5,420.5C 136.508,420.672 135.842,420.338 135.5,419.5C 137.498,286.171 138.165,152.504 137.5,18.5C 135.801,18.3398 134.134,18.5065 132.5,19C 129.712,22.2488 126.379,23.4155 122.5,22.5C 127.437,19.4044 132.77,17.0711 138.5,15.5 Z"/></g>
<g><path style="opacity:1" fill="#a199c1" d="M 138.5,15.5 C 139.833,150.667 139.833,286.001 138.5,421.5C 137.893,421.376 137.56,421.043 137.5,420.5C 138.5,285.668 138.833,150.668 138.5,15.5 Z"/></g>
<g><path style="opacity:1" fill="#c6bfe0" d="M 298.5,15.5 C 297.5,150.666 297.167,285.999 297.5,421.5C 296.167,285.999 296.167,150.333 297.5,14.5C 298.107,14.6236 298.44,14.9569 298.5,15.5 Z"/></g>
<g><path style="opacity:1" fill="#2c1e68" d="M 298.5,15.5 C 298.5,16.8333 298.5,18.1667 298.5,19.5C 298.5,152.5 298.5,285.5 298.5,418.5C 300.483,418.843 301.817,418.176 302.5,416.5C 305.206,416.425 307.873,416.092 310.5,415.5C 306.414,417.87 302.081,419.87 297.5,421.5C 297.167,285.999 297.5,150.666 298.5,15.5 Z"/></g>
<g><path style="opacity:1" fill="#291575" d="M 298.5,19.5 C 299.833,151.5 301.167,283.5 302.5,415.5C 302.5,415.833 302.5,416.167 302.5,416.5C 301.817,418.176 300.483,418.843 298.5,418.5C 298.5,285.5 298.5,152.5 298.5,19.5 Z"/></g>
<g><path style="opacity:1" fill="#33246b" d="M 434.5,189.5 C 435.317,191.969 435.817,194.635 436,197.5C 436.667,211.5 436.667,225.5 436,239.5C 435.59,246.106 434.423,252.439 432.5,258.5C 435.496,235.599 436.163,212.599 434.5,189.5 Z"/></g>
<g><path style="opacity:1" fill="#302069" d="M 2.5,189.5 C 2.25033,210.518 2.58366,231.518 3.5,252.5C 2.71003,251.391 2.21003,250.058 2,248.5C 1.05609,237.688 0.556087,226.855 0.5,216C 0.284248,206.943 0.950914,198.11 2.5,189.5 Z"/></g>
<g><path style="opacity:1" fill="#f0b1a8" d="M 157.5,386.5 C 157.833,386.5 158.167,386.5 158.5,386.5C 158.993,388.806 159.326,391.139 159.5,393.5C 158.076,391.485 157.41,389.152 157.5,386.5 Z"/></g>
<g><path style="opacity:1" fill="#fdd3d0" d="M 234.5,433.5 C 234.218,434.778 233.551,435.778 232.5,436.5C 225.833,436.5 219.167,436.5 212.5,436.5C 212.5,436.167 212.5,435.833 212.5,435.5C 219.937,435.779 227.27,435.112 234.5,433.5 Z"/></g>
</svg>
